<svg width="29" height="28" fill="none" xmlns="http://www.w3.org/2000/svg"><g clip-path="url(#prefix__clip0_18_3821)"><path d="M16.973 12.215L14.5 14.688l-2.485-2.473-1.645 1.645 2.485 2.473-2.473 2.474 1.645 1.645 2.473-2.474 2.473 2.474 1.645-1.645-2.473-2.474 2.473-2.473-1.645-1.645zm1.61-7.548L17.417 3.5h-5.834l-1.166 1.167H6.333V7h16.334V4.667h-4.084zM7.5 22.167A2.34 2.34 0 009.833 24.5h9.334a2.34 2.34 0 002.333-2.333v-14h-14v14zM9.833 10.5h9.334v11.667H9.833V10.5z" fill="#F44336"/></g><defs><clipPath id="prefix__clip0_18_3821"><path fill="#fff" transform="translate(.5)" d="M0 0h28v28H0z"/></clipPath></defs></svg>