<svg width="34" height="37" viewBox="0 0 34 37" fill="none" xmlns="http://www.w3.org/2000/svg">
<path d="M17.9656 8.0477C21.6058 8.0477 22.9555 9.77822 23.0782 12.3231H27.5978C27.4546 8.82134 25.3073 5.60461 21.0332 4.5663V0.107666H14.898V4.50522C14.1004 4.6681 13.3642 4.93276 12.6484 5.23815L15.7365 8.31237C16.3909 8.1495 17.1476 8.0477 17.9656 8.0477ZM3.58885 1.9807L0.705322 4.85133L7.74031 11.8548C7.74031 16.0895 10.9306 18.4105 15.7365 19.8152L22.9146 26.9613C22.2193 27.9589 20.7673 28.8139 17.9656 28.8139C13.7528 28.8139 12.0963 26.9409 11.8713 24.5385H7.3722C7.61761 28.9972 10.9715 31.5013 14.898 32.3361V36.754H21.0332V32.3768C22.9964 32.0103 24.7756 31.257 26.064 30.0966L30.604 34.6163L33.4875 31.7456L3.58885 1.9807Z" fill="white" fill-opacity="0.31"/>
</svg>
