<svg width="54" height="54" viewBox="0 0 54 54" fill="none" xmlns="http://www.w3.org/2000/svg">
<circle cx="27" cy="27" r="27" fill="#51D289"/>
<path d="M12 36.7018C12 37.4145 12.5727 37.9873 13.2855 37.9873H29.8182C30.5309 37.9873 31.1036 37.4145 31.1036 36.7018V35.4545H12V36.7018ZM21.5455 20.1691C16.7727 20.1691 12 22.7273 12 27.8182H31.0909C31.0909 22.7273 26.3182 20.1691 21.5455 20.1691ZM15.3345 25.2727C16.7473 23.3 19.7509 22.7145 21.5455 22.7145C23.34 22.7145 26.3436 23.3 27.7564 25.2727H15.3345ZM12 30.3636H31.0909V32.9091H12V30.3636ZM33.6364 15.0909V10H31.0909V15.0909H24.7273L25.02 17.6364H37.1873L35.4055 35.4545H33.6364V38H35.8255C36.8945 38 37.7727 37.1727 37.9 36.1291L40 15.0909H33.6364Z" fill="#1E1E1E"/>
</svg>
