<svg width="54" height="54" viewBox="0 0 54 54" fill="none" xmlns="http://www.w3.org/2000/svg">
<circle cx="27" cy="27" r="27" fill="#51D289"/>
<path d="M31.6111 18.75C31.6111 17.49 33.7778 15 33.7778 15C33.7778 15 35.9444 17.49 35.9444 18.75C35.9444 19.995 34.9767 21 33.7778 21C32.5789 21 31.6111 19.995 31.6111 18.75ZM37.3889 31.5C39.3822 31.5 41 29.82 41 27.75C41 25.245 37.3889 21 37.3889 21C37.3889 21 33.7778 25.245 33.7778 27.75C33.7778 29.82 35.3956 31.5 37.3889 31.5ZM28 30H25.1111V27H22.2222V30H19.3333V33H22.2222V36H25.1111V33H28V30ZM32.3333 27V39C32.3333 40.65 31.0333 42 29.4444 42H17.8889C16.3 42 15 40.65 15 39V27C15 22.545 18.12 18.855 22.2222 18.135V15H19.3333V12H28C29.6322 12 31.1056 12.585 32.3189 13.515L30.2533 15.66C29.5889 15.255 28.8233 15 28 15H25.1111V18.135C29.2133 18.855 32.3333 22.545 32.3333 27ZM29.4444 27C29.4444 23.685 26.8589 21 23.6667 21C20.4744 21 17.8889 23.685 17.8889 27V39H29.4444V27Z" fill="#1E1E1E"/>
</svg>
