<svg width="54" height="54" fill="none" xmlns="http://www.w3.org/2000/svg"><circle cx="27" cy="27" r="27" fill="#51D289"/><g clip-path="url(#prefix__clip0_6_222)" fill="#1E1E1E"><path d="M39.75 20.313v-3.23a2.842 2.842 0 00-2.833-2.833H17.083a2.833 2.833 0 00-2.833 2.833v19.834a2.833 2.833 0 002.833 2.833h19.834a2.842 2.842 0 002.833-2.833v-3.23c.836-.496 1.417-1.389 1.417-2.437v-8.5c0-1.048-.581-1.94-1.417-2.437zm-1.417 2.437v8.5h-9.916v-8.5h9.916zm-21.25 14.167V17.083h19.834v2.834h-8.5a2.842 2.842 0 00-2.834 2.833v8.5a2.842 2.842 0 002.834 2.833h8.5v2.834H17.083z"/><path d="M32.667 29.125a2.125 2.125 0 100-4.25 2.125 2.125 0 000 4.25z"/></g><defs><clipPath id="prefix__clip0_6_222"><path fill="#fff" transform="translate(10 10)" d="M0 0h34v34H0z"/></clipPath></defs></svg>