<svg width="54" height="54" viewBox="0 0 54 54" fill="none" xmlns="http://www.w3.org/2000/svg">
<circle cx="27" cy="27" r="27" fill="#51D289"/>
<g clip-path="url(#clip0_6_227)">
<path d="M35.8 36.9999H39V39.6666H31V31.6666H33.6667V35.3066C36.1067 33.3466 37.6667 30.3599 37.6667 26.9999C37.6667 21.5733 33.5867 17.0799 28.3334 16.4266V13.7333C35.0667 14.3999 40.3334 20.0799 40.3334 26.9999C40.3334 30.9866 38.5734 34.5599 35.8 36.9999ZM16.3334 26.9999C16.3334 23.6399 17.8934 20.6399 20.3334 18.6933V22.3333H23V14.3333H15V16.9999H18.2C15.4267 19.4399 13.6667 23.0133 13.6667 26.9999C13.6667 33.9199 18.9334 39.5999 25.6667 40.2666V37.5733C20.4134 36.9199 16.3334 32.4266 16.3334 26.9999ZM32.6534 21.8133L25.1067 29.3599L21.3334 25.5866L19.4534 27.4666L25.1067 33.1199L34.5334 23.6933L32.6534 21.8133Z" fill="#1E1E1E"/>
</g>
<defs>
<clipPath id="clip0_6_227">
<rect width="32" height="32" fill="white" transform="translate(11 11)"/>
</clipPath>
</defs>
</svg>
