<svg width="84" height="84" viewBox="0 0 84 84" fill="none" xmlns="http://www.w3.org/2000/svg">
<path d="M31.5 77C33.433 77 35 75.433 35 73.5C35 71.567 33.433 70 31.5 70C29.567 70 28 71.567 28 73.5C28 75.433 29.567 77 31.5 77Z" stroke="#FFFDE7" stroke-width="2" stroke-linecap="round" stroke-linejoin="round"/>
<path d="M70 77C71.933 77 73.5 75.433 73.5 73.5C73.5 71.567 71.933 70 70 70C68.067 70 66.5 71.567 66.5 73.5C66.5 75.433 68.067 77 70 77Z" stroke="#FFFDE7" stroke-width="2" stroke-linecap="round" stroke-linejoin="round"/>
<path d="M3.5 3.5H17.5L26.88 50.365C27.2001 51.9764 28.0767 53.4239 29.3564 54.454C30.6361 55.4842 32.2374 56.0315 33.88 56H67.9C69.5426 56.0315 71.1439 55.4842 72.4236 54.454C73.7033 53.4239 74.5799 51.9764 74.9 50.365L80.5 21H21" stroke="#FFFDE7" stroke-width="4" stroke-linecap="round" stroke-linejoin="round"/>
</svg>
