<svg width="301" height="53" viewBox="0 0 301 53" fill="none" xmlns="http://www.w3.org/2000/svg">
<rect width="301" height="53" fill="#2B2B2B"/>
<g clip-path="url(#clip0_1_2)">
<rect width="390" height="2051" transform="translate(-32 -29)" fill="#1E1E1E"/>
<path d="M54.5855 44.2478L47.2355 24.8774H47.1158C47.1557 25.2866 47.1906 25.7856 47.2206 26.3744C47.2505 26.9632 47.2754 27.6068 47.2954 28.3054C47.3154 28.994 47.3253 29.6976 47.3253 30.4161V44.2478H44.9602V22.3626H48.7325L55.6633 40.5653H55.7681L62.8037 22.3626H66.546V44.2478H64.0312V30.2365C64.0312 29.5878 64.0412 28.9391 64.0611 28.2904C64.0811 27.6318 64.106 27.0131 64.136 26.4342C64.1659 25.8454 64.1958 25.3365 64.2258 24.9074H64.106L56.6662 44.2478H54.5855ZM86.3056 36.0146C86.3056 37.3619 86.131 38.5644 85.7817 39.6223C85.4324 40.6801 84.9284 41.5733 84.2698 42.3018C83.6111 43.0303 82.8128 43.5892 81.8747 43.9784C80.9466 44.3576 79.8937 44.5472 78.7161 44.5472C77.6184 44.5472 76.6104 44.3576 75.6923 43.9784C74.7842 43.5892 73.9958 43.0303 73.3272 42.3018C72.6685 41.5733 72.1546 40.6801 71.7853 39.6223C71.426 38.5644 71.2464 37.3619 71.2464 36.0146C71.2464 34.2183 71.5508 32.6914 72.1595 31.434C72.7683 30.1666 73.6365 29.2036 74.7642 28.5449C75.9019 27.8763 77.2541 27.542 78.8209 27.542C80.3179 27.542 81.6252 27.8763 82.7429 28.5449C83.8706 29.2136 84.7438 30.1816 85.3625 31.449C85.9913 32.7064 86.3056 34.2283 86.3056 36.0146ZM73.8211 36.0146C73.8211 37.3319 73.9958 38.4746 74.3451 39.4426C74.6944 40.4107 75.2333 41.1591 75.9618 41.688C76.6903 42.217 77.6284 42.4814 78.776 42.4814C79.9137 42.4814 80.8468 42.217 81.5753 41.688C82.3138 41.1591 82.8577 40.4107 83.2069 39.4426C83.5562 38.4746 83.7309 37.3319 83.7309 36.0146C83.7309 34.7073 83.5562 33.5796 83.2069 32.6316C82.8577 31.6735 82.3188 30.935 81.5903 30.4161C80.8617 29.8972 79.9187 29.6377 78.761 29.6377C77.0545 29.6377 75.8021 30.2015 75.0037 31.3292C74.2153 32.4569 73.8211 34.0187 73.8211 36.0146ZM98.3709 27.542C100.317 27.542 101.789 28.021 102.787 28.979C103.785 29.9271 104.284 31.454 104.284 33.5597V44.2478H101.829V33.7243C101.829 32.3571 101.515 31.3342 100.886 30.6556C100.267 29.977 99.314 29.6377 98.0266 29.6377C96.2104 29.6377 94.933 30.1516 94.1945 31.1795C93.456 32.2074 93.0867 33.6994 93.0867 35.6554V44.2478H90.6018V27.8414H92.6077L92.982 30.2065H93.1167C93.466 29.6277 93.9101 29.1437 94.449 28.7545C94.9879 28.3553 95.5916 28.0559 96.2602 27.8563C96.9289 27.6468 97.6324 27.542 98.3709 27.542ZM114.703 42.5114C115.112 42.5114 115.531 42.4764 115.96 42.4066C116.389 42.3367 116.738 42.2519 117.008 42.1521V44.0831C116.718 44.2129 116.314 44.3226 115.795 44.4125C115.286 44.5023 114.787 44.5472 114.298 44.5472C113.43 44.5472 112.642 44.3975 111.933 44.0981C111.225 43.7887 110.656 43.2698 110.227 42.5413C109.808 41.8128 109.598 40.8048 109.598 39.5175V29.7874H107.263V28.5749L109.613 27.6019L110.601 24.0391H112.098V27.8414H116.903V29.7874H112.098V39.4426C112.098 40.4705 112.332 41.239 112.801 41.7479C113.28 42.2569 113.914 42.5114 114.703 42.5114ZM122.816 20.9554V27.9162C122.816 28.3154 122.806 28.7196 122.786 29.1287C122.766 29.5279 122.731 29.8972 122.681 30.2365H122.846C123.185 29.6576 123.614 29.1736 124.133 28.7844C124.662 28.3853 125.261 28.0859 125.93 27.8863C126.598 27.6767 127.307 27.5719 128.055 27.5719C129.373 27.5719 130.47 27.7815 131.348 28.2006C132.237 28.6198 132.9 29.2684 133.339 30.1466C133.788 31.0249 134.013 32.1625 134.013 33.5597V44.2478H131.558V33.7243C131.558 32.3571 131.244 31.3342 130.615 30.6556C129.996 29.977 129.043 29.6377 127.756 29.6377C126.538 29.6377 125.565 29.8722 124.837 30.3412C124.118 30.8003 123.599 31.4789 123.28 32.3771C122.971 33.2752 122.816 34.373 122.816 35.6703V44.2478H120.331V20.9554H122.816ZM141.632 44.2478H139.133V20.9554H141.632V44.2478ZM144.297 27.8414H146.962L150.584 37.3619C150.794 37.9207 150.988 38.4596 151.168 38.9786C151.348 39.4875 151.507 39.9765 151.647 40.4456C151.787 40.9146 151.896 41.3687 151.976 41.8078H152.081C152.221 41.3088 152.42 40.6552 152.68 39.8468C152.939 39.0285 153.219 38.1952 153.518 37.3469L156.946 27.8414H159.626L152.485 46.6579C152.106 47.6658 151.662 48.544 151.153 49.2925C150.654 50.041 150.045 50.6148 149.327 51.014C148.608 51.4231 147.74 51.6277 146.722 51.6277C146.253 51.6277 145.839 51.5978 145.48 51.5379C145.12 51.488 144.811 51.4281 144.551 51.3583V49.3673C144.771 49.4172 145.035 49.4621 145.345 49.5021C145.664 49.542 145.994 49.5619 146.333 49.5619C146.952 49.5619 147.485 49.4422 147.935 49.2027C148.394 48.9731 148.788 48.6338 149.117 48.1847C149.446 47.7357 149.731 47.2018 149.97 46.583L150.869 44.2777L144.297 27.8414Z" fill="#FFFDE7"/>
<path d="M170.583 22.3626H176.781C179.515 22.3626 181.571 22.7717 182.948 23.5901C184.325 24.4084 185.014 25.8005 185.014 27.7665C185.014 28.6148 184.849 29.3782 184.52 30.0568C184.2 30.7255 183.731 31.2793 183.113 31.7184C182.494 32.1575 181.73 32.4619 180.822 32.6316V32.7813C181.78 32.931 182.629 33.2054 183.367 33.6046C184.106 34.0038 184.684 34.5626 185.104 35.2811C185.523 35.9997 185.732 36.9128 185.732 38.0205C185.732 39.3678 185.418 40.5055 184.789 41.4336C184.17 42.3617 183.292 43.0652 182.155 43.5442C181.017 44.0133 179.67 44.2478 178.113 44.2478H170.583V22.3626ZM173.128 31.7484H177.319C179.226 31.7484 180.543 31.434 181.271 30.8053C182.01 30.1766 182.379 29.2585 182.379 28.0509C182.379 26.8035 181.94 25.9053 181.062 25.3564C180.194 24.8076 178.806 24.5331 176.9 24.5331H173.128V31.7484ZM173.128 33.889V42.0772H177.679C179.625 42.0772 181.002 41.698 181.81 40.9396C182.619 40.1711 183.023 39.1383 183.023 37.8409C183.023 37.0126 182.838 36.3041 182.469 35.7153C182.11 35.1265 181.521 34.6774 180.703 34.368C179.894 34.0487 178.811 33.889 177.454 33.889H173.128ZM203.576 27.8414V44.2478H201.54L201.181 41.9425H201.046C200.707 42.5114 200.267 42.9904 199.729 43.3796C199.19 43.7688 198.581 44.0582 197.902 44.2478C197.234 44.4474 196.52 44.5472 195.762 44.5472C194.464 44.5472 193.377 44.3376 192.498 43.9185C191.62 43.4993 190.957 42.8507 190.507 41.9725C190.068 41.0943 189.849 39.9666 189.849 38.5894V27.8414H192.364V38.4097C192.364 39.7769 192.673 40.7999 193.292 41.4785C193.91 42.1471 194.854 42.4814 196.121 42.4814C197.338 42.4814 198.307 42.2519 199.025 41.7928C199.754 41.3338 200.277 40.6601 200.597 39.772C200.916 38.8738 201.076 37.776 201.076 36.4787V27.8414H203.576ZM214.668 44.5472C212.592 44.5472 210.946 43.8386 209.728 42.4215C208.521 41.0044 207.917 38.8987 207.917 36.1045C207.917 33.2802 208.536 31.1496 209.773 29.7125C211.011 28.2655 212.657 27.542 214.713 27.542C215.581 27.542 216.34 27.6567 216.988 27.8863C217.637 28.1158 218.196 28.4252 218.665 28.8144C219.134 29.1936 219.528 29.6277 219.847 30.1167H220.027C219.987 29.8073 219.947 29.3832 219.907 28.8443C219.867 28.3054 219.847 27.8663 219.847 27.527V20.9554H222.332V44.2478H220.326L219.952 41.9126H219.847C219.538 42.4016 219.144 42.8457 218.665 43.2449C218.196 43.644 217.632 43.9634 216.973 44.2029C216.325 44.4324 215.556 44.5472 214.668 44.5472ZM215.057 42.4814C216.814 42.4814 218.056 41.9824 218.785 40.9845C219.513 39.9865 219.877 38.5046 219.877 36.5386V36.0895C219.877 34.0038 219.528 32.402 218.83 31.2843C218.141 30.1666 216.884 29.6077 215.057 29.6077C213.53 29.6077 212.388 30.1965 211.629 31.3741C210.871 32.5417 210.492 34.1385 210.492 36.1643C210.492 38.1802 210.866 39.737 211.614 40.8348C212.373 41.9325 213.52 42.4814 215.057 42.4814ZM232.182 51.6127C230.027 51.6127 228.365 51.2086 227.197 50.4002C226.03 49.6019 225.446 48.4791 225.446 47.0321C225.446 46.0042 225.77 45.126 226.419 44.3975C227.078 43.669 227.986 43.185 229.143 42.9455C228.714 42.7459 228.345 42.4465 228.036 42.0473C227.736 41.6481 227.587 41.1891 227.587 40.6701C227.587 40.0713 227.751 39.5474 228.081 39.0983C228.42 38.6393 228.934 38.2002 229.622 37.781C228.764 37.4317 228.066 36.8429 227.527 36.0146C226.998 35.1764 226.733 34.2033 226.733 33.0956C226.733 31.918 226.978 30.9151 227.467 30.0868C227.956 29.2485 228.664 28.6098 229.593 28.1707C230.521 27.7316 231.643 27.512 232.961 27.512C233.25 27.512 233.539 27.527 233.829 27.5569C234.128 27.5769 234.413 27.6118 234.682 27.6617C234.952 27.7016 235.186 27.7515 235.386 27.8114H241.014V29.4131L237.99 29.7874C238.29 30.1766 238.539 30.6456 238.739 31.1945C238.938 31.7434 239.038 32.3521 239.038 33.0208C239.038 34.6574 238.484 35.9598 237.377 36.9278C236.269 37.8858 234.747 38.3648 232.811 38.3648C232.352 38.3648 231.883 38.3249 231.404 38.2451C230.915 38.5145 230.541 38.8139 230.281 39.1432C230.032 39.4726 229.907 39.8518 229.907 40.2809C229.907 40.6003 230.002 40.8547 230.191 41.0444C230.391 41.234 230.675 41.3737 231.045 41.4635C231.414 41.5433 231.858 41.5833 232.377 41.5833H235.266C237.052 41.5833 238.419 41.9575 239.368 42.706C240.326 43.4544 240.805 44.5472 240.805 45.9843C240.805 47.8005 240.066 49.1927 238.589 50.1607C237.112 51.1287 234.977 51.6127 232.182 51.6127ZM232.257 49.6667C233.614 49.6667 234.737 49.527 235.625 49.2476C236.523 48.9781 237.192 48.5839 237.631 48.065C238.08 47.556 238.305 46.9473 238.305 46.2387C238.305 45.5801 238.155 45.0811 237.856 44.7418C237.556 44.4125 237.117 44.1929 236.538 44.0831C235.959 43.9634 235.251 43.9035 234.413 43.9035H231.568C230.83 43.9035 230.186 44.0183 229.637 44.2478C229.089 44.4773 228.664 44.8166 228.365 45.2657C228.076 45.7148 227.931 46.2737 227.931 46.9423C227.931 47.8305 228.305 48.5041 229.054 48.9632C229.802 49.4322 230.87 49.6667 232.257 49.6667ZM232.901 36.5535C234.088 36.5535 234.981 36.2542 235.58 35.6554C236.179 35.0566 236.478 34.1834 236.478 33.0357C236.478 31.8082 236.174 30.8901 235.565 30.2814C234.957 29.6626 234.058 29.3533 232.871 29.3533C231.733 29.3533 230.855 29.6726 230.236 30.3113C229.627 30.94 229.323 31.8631 229.323 33.0806C229.323 34.1984 229.632 35.0566 230.251 35.6554C230.87 36.2542 231.753 36.5535 232.901 36.5535ZM250.565 27.542C251.962 27.542 253.159 27.8513 254.157 28.4701C255.155 29.0888 255.919 29.957 256.448 31.0747C256.977 32.1825 257.241 33.4798 257.241 34.9668V36.5086H245.909C245.939 38.4347 246.418 39.9017 247.346 40.9096C248.274 41.9176 249.582 42.4215 251.268 42.4215C252.306 42.4215 253.224 42.3267 254.023 42.1371C254.821 41.9475 255.649 41.6681 256.507 41.2988V43.4844C255.679 43.8536 254.856 44.1231 254.038 44.2927C253.229 44.4624 252.271 44.5472 251.163 44.5472C249.587 44.5472 248.209 44.2278 247.032 43.5892C245.864 42.9405 244.956 41.9924 244.307 40.745C243.659 39.4975 243.334 37.9706 243.334 36.1643C243.334 34.398 243.629 32.8711 244.218 31.5837C244.816 30.2864 245.655 29.2884 246.732 28.5898C247.82 27.8913 249.098 27.542 250.565 27.542ZM250.535 29.5778C249.207 29.5778 248.15 30.0119 247.361 30.8801C246.573 31.7484 246.104 32.9609 245.954 34.5177H254.636C254.626 33.5397 254.472 32.6815 254.172 31.943C253.883 31.1945 253.439 30.6157 252.84 30.2065C252.241 29.7874 251.473 29.5778 250.535 29.5778ZM266.761 42.5114C267.171 42.5114 267.59 42.4764 268.019 42.4066C268.448 42.3367 268.797 42.2519 269.067 42.1521V44.0831C268.777 44.2129 268.373 44.3226 267.854 44.4125C267.345 44.5023 266.846 44.5472 266.357 44.5472C265.489 44.5472 264.701 44.3975 263.992 44.0981C263.284 43.7887 262.715 43.2698 262.286 42.5413C261.866 41.8128 261.657 40.8048 261.657 39.5175V29.7874H259.322V28.5749L261.672 27.6019L262.66 24.0391H264.157V27.8414H268.962V29.7874H264.157V39.4426C264.157 40.4705 264.391 41.239 264.86 41.7479C265.339 42.2569 265.973 42.5114 266.761 42.5114Z" fill="#51D289"/>
<path d="M49.3805 12H45.0704V4.2589H49.3805V5.05313H45.9706V7.5576H49.1846V8.34124H45.9706V11.2058H49.3805V12ZM52.3456 9.02958L50.3388 6.19682H51.3449L52.8751 8.43126L54.4 6.19682H55.3955L53.3887 9.02958L55.5066 12H54.5006L52.8751 9.63319L51.239 12H50.2435L52.3456 9.02958ZM59.3666 6.09092C60.0902 6.09092 60.6674 6.33978 61.098 6.8375C61.5287 7.33522 61.744 8.08356 61.744 9.08252C61.744 9.74262 61.6452 10.2968 61.4475 10.7451C61.2498 11.1934 60.971 11.5323 60.6109 11.7617C60.2544 11.9912 59.8326 12.1059 59.3454 12.1059C59.0383 12.1059 58.7683 12.0653 58.5353 11.9841C58.3023 11.9029 58.1029 11.7935 57.937 11.6558C57.7711 11.5182 57.6334 11.3681 57.524 11.2058H57.4605C57.471 11.3434 57.4834 11.5093 57.4975 11.7035C57.5152 11.8976 57.524 12.0671 57.524 12.2118V14.5945H56.6397V6.19682H57.3651L57.4816 7.05459H57.524C57.6369 6.87809 57.7746 6.71748 57.937 6.57275C58.0994 6.4245 58.297 6.30801 58.53 6.22329C58.7665 6.13505 59.0454 6.09092 59.3666 6.09092ZM59.2131 6.8322C58.8106 6.8322 58.4859 6.90986 58.2388 7.06518C57.9952 7.22049 57.817 7.45347 57.704 7.7641C57.5911 8.0712 57.5311 8.45773 57.524 8.92368V9.09311C57.524 9.58377 57.5769 9.99854 57.6828 10.3374C57.7923 10.6763 57.9705 10.934 58.2176 11.1105C58.4682 11.287 58.8036 11.3752 59.2236 11.3752C59.5837 11.3752 59.8837 11.2781 60.1238 11.084C60.3638 10.8898 60.5421 10.6198 60.6586 10.2739C60.7786 9.92441 60.8386 9.52376 60.8386 9.07194C60.8386 8.38713 60.7044 7.84352 60.4362 7.44111C60.1714 7.03517 59.7637 6.8322 59.2131 6.8322ZM65.514 6.09092C66.0081 6.09092 66.4317 6.20035 66.7847 6.4192C67.1377 6.63806 67.4078 6.94516 67.5948 7.34051C67.7819 7.73233 67.8755 8.19122 67.8755 8.71718V9.26255H63.8673C63.8778 9.94382 64.0473 10.4627 64.3756 10.8192C64.7038 11.1758 65.1663 11.354 65.7628 11.354C66.1299 11.354 66.4547 11.3205 66.7371 11.2534C67.0195 11.1864 67.3124 11.0875 67.616 10.9569V11.73C67.323 11.8606 67.0318 11.9559 66.7424 12.0159C66.4564 12.0759 66.1176 12.1059 65.7258 12.1059C65.168 12.1059 64.6809 11.9929 64.2644 11.767C63.8514 11.5376 63.5301 11.2022 63.3007 10.761C63.0713 10.3198 62.9565 9.77968 62.9565 9.14077C62.9565 8.51597 63.0607 7.9759 63.2689 7.52054C63.4807 7.06165 63.7772 6.70866 64.1585 6.46156C64.5432 6.21447 64.9951 6.09092 65.514 6.09092ZM65.5034 6.81102C65.0339 6.81102 64.6597 6.96458 64.3809 7.27168C64.102 7.57878 63.9361 8.00767 63.8831 8.55833H66.9542C66.9506 8.2124 66.8959 7.90883 66.79 7.64761C66.6877 7.38287 66.5306 7.17814 66.3188 7.03341C66.107 6.88515 65.8352 6.81102 65.5034 6.81102ZM72.1167 6.09092C72.805 6.09092 73.3257 6.26036 73.6787 6.59923C74.0316 6.93457 74.2081 7.47465 74.2081 8.21946V12H73.3398V8.2777C73.3398 7.79411 73.2286 7.43229 73.0062 7.19225C72.7873 6.95222 72.4502 6.8322 71.9949 6.8322C71.3524 6.8322 70.9006 7.01399 70.6394 7.37758C70.3782 7.74116 70.2476 8.26888 70.2476 8.96074V12H69.3686V6.19682H70.0781L70.2105 7.03341H70.2582C70.3817 6.82867 70.5388 6.65747 70.7294 6.51981C70.92 6.37861 71.1336 6.27271 71.3701 6.20211C71.6066 6.12799 71.8554 6.09092 72.1167 6.09092ZM79.773 10.4115C79.773 10.7822 79.6795 11.0946 79.4924 11.3487C79.3089 11.5994 79.0441 11.7882 78.6982 11.9153C78.3558 12.0424 77.9463 12.1059 77.4698 12.1059C77.0638 12.1059 76.7126 12.0741 76.4161 12.0106C76.1196 11.9471 75.8601 11.857 75.6378 11.7406V10.9304C75.8743 11.0469 76.1567 11.1528 76.4849 11.2481C76.8132 11.3434 77.1486 11.3911 77.491 11.3911C77.9922 11.3911 78.3558 11.3099 78.5817 11.1475C78.8076 10.9851 78.9206 10.7645 78.9206 10.4857C78.9206 10.3268 78.8747 10.1874 78.7829 10.0674C78.6947 9.94382 78.5446 9.82557 78.3328 9.71261C78.121 9.59613 77.8281 9.46905 77.4539 9.33138C77.0833 9.19019 76.762 9.05076 76.4902 8.91309C76.222 8.77189 76.0137 8.60069 75.8654 8.39949C75.7207 8.19828 75.6483 7.93707 75.6483 7.61584C75.6483 7.12519 75.846 6.74925 76.2414 6.48804C76.6402 6.22329 77.1627 6.09092 77.8087 6.09092C78.1581 6.09092 78.4846 6.12622 78.7882 6.19682C79.0953 6.26389 79.3812 6.35566 79.646 6.47215L79.3495 7.17637C79.1094 7.074 78.8535 6.98752 78.5817 6.91692C78.3099 6.84632 78.0328 6.81102 77.7504 6.81102C77.3445 6.81102 77.0321 6.87809 76.8132 7.01223C76.5979 7.14637 76.4902 7.32992 76.4902 7.5629C76.4902 7.74292 76.5396 7.89118 76.6385 8.00767C76.7409 8.12415 76.9032 8.23358 77.1256 8.33595C77.348 8.43832 77.641 8.55833 78.0046 8.696C78.3681 8.83014 78.6823 8.96957 78.947 9.11429C79.2118 9.25549 79.4148 9.42846 79.556 9.63319C79.7007 9.8344 79.773 10.0938 79.773 10.4115ZM83.4212 6.09092C83.9154 6.09092 84.339 6.20035 84.692 6.4192C85.045 6.63806 85.315 6.94516 85.5021 7.34051C85.6892 7.73233 85.7827 8.19122 85.7827 8.71718V9.26255H81.7745C81.7851 9.94382 81.9545 10.4627 82.2828 10.8192C82.6111 11.1758 83.0735 11.354 83.6701 11.354C84.0372 11.354 84.3619 11.3205 84.6443 11.2534C84.9267 11.1864 85.2197 11.0875 85.5233 10.9569V11.73C85.2303 11.8606 84.9391 11.9559 84.6496 12.0159C84.3637 12.0759 84.0248 12.1059 83.633 12.1059C83.0753 12.1059 82.5882 11.9929 82.1716 11.767C81.7586 11.5376 81.4374 11.2022 81.208 10.761C80.9785 10.3198 80.8638 9.77968 80.8638 9.14077C80.8638 8.51597 80.9679 7.9759 81.1762 7.52054C81.388 7.06165 81.6845 6.70866 82.0657 6.46156C82.4505 6.21447 82.9023 6.09092 83.4212 6.09092ZM83.4106 6.81102C82.9411 6.81102 82.567 6.96458 82.2881 7.27168C82.0093 7.57878 81.8433 8.00767 81.7904 8.55833H84.8614C84.8579 8.2124 84.8032 7.90883 84.6973 7.64761C84.5949 7.38287 84.4378 7.17814 84.226 7.03341C84.0142 6.88515 83.7424 6.81102 83.4106 6.81102ZM91.0299 10.4115C91.0299 10.7822 90.9364 11.0946 90.7493 11.3487C90.5658 11.5994 90.301 11.7882 89.9551 11.9153C89.6127 12.0424 89.2032 12.1059 88.7267 12.1059C88.3207 12.1059 87.9695 12.0741 87.673 12.0106C87.3765 11.9471 87.117 11.857 86.8947 11.7406V10.9304C87.1312 11.0469 87.4136 11.1528 87.7418 11.2481C88.0701 11.3434 88.4055 11.3911 88.7479 11.3911C89.2491 11.3911 89.6127 11.3099 89.8386 11.1475C90.0645 10.9851 90.1775 10.7645 90.1775 10.4857C90.1775 10.3268 90.1316 10.1874 90.0398 10.0674C89.9516 9.94382 89.8015 9.82557 89.5897 9.71261C89.3779 9.59613 89.085 9.46905 88.7108 9.33138C88.3402 9.19019 88.0189 9.05076 87.7471 8.91309C87.4789 8.77189 87.2706 8.60069 87.1223 8.39949C86.9776 8.19828 86.9052 7.93707 86.9052 7.61584C86.9052 7.12519 87.1029 6.74925 87.4983 6.48804C87.8971 6.22329 88.4196 6.09092 89.0656 6.09092C89.415 6.09092 89.7415 6.12622 90.0451 6.19682C90.3522 6.26389 90.6381 6.35566 90.9029 6.47215L90.6064 7.17637C90.3663 7.074 90.1104 6.98752 89.8386 6.91692C89.5668 6.84632 89.2897 6.81102 89.0073 6.81102C88.6014 6.81102 88.289 6.87809 88.0701 7.01223C87.8548 7.14637 87.7471 7.32992 87.7471 7.5629C87.7471 7.74292 87.7965 7.89118 87.8954 8.00767C87.9978 8.12415 88.1601 8.23358 88.3825 8.33595C88.6049 8.43832 88.8979 8.55833 89.2615 8.696C89.625 8.83014 89.9392 8.96957 90.2039 9.11429C90.4687 9.25549 90.6717 9.42846 90.8129 9.63319C90.9576 9.8344 91.0299 10.0938 91.0299 10.4115Z" fill="#FFE600"/>
<path d="M17.9656 14.0477C21.6058 14.0477 22.9555 15.7782 23.0782 18.3231H27.5978C27.4546 14.8213 25.3073 11.6046 21.0332 10.5663V6.10767H14.898V10.5052C14.1004 10.6681 13.3642 10.9328 12.6484 11.2381L15.7365 14.3124C16.3909 14.1495 17.1476 14.0477 17.9656 14.0477ZM3.58885 7.9807L0.705322 10.8513L7.74031 17.8548C7.74031 22.0895 10.9306 24.4105 15.7365 25.8152L22.9146 32.9613C22.2193 33.9589 20.7673 34.8139 17.9656 34.8139C13.7528 34.8139 12.0963 32.9409 11.8713 30.5385H7.3722C7.61761 34.9972 10.9715 37.5013 14.898 38.3361V42.754H21.0332V38.3768C22.9964 38.0103 24.7756 37.257 26.064 36.0966L30.604 40.6163L33.4875 37.7456L3.58885 7.9807Z" fill="white" fill-opacity="0.31"/>
</g>
<defs>
<clipPath id="clip0_1_2">
<rect width="390" height="2051" fill="white" transform="translate(-32 -29)"/>
</clipPath>
</defs>
</svg>
