<svg width="587" height="103" fill="none" xmlns="http://www.w3.org/2000/svg"><path d="M114.277 86l-8.755-30.831h-.263c.41 5.25.615 9.33.615 12.239V86H95.626V43.194h15.401l8.93 30.392h.234l8.755-30.392h15.43V86h-10.628V67.232c0-.976.009-2.06.029-3.25.039-1.19.176-4.109.41-8.754h-.264L125.286 86h-11.009zm70.329-16.66c0 5.427-1.464 9.662-4.392 12.707-2.909 3.026-6.988 4.539-12.239 4.539-5.036 0-9.047-1.552-12.034-4.656-2.967-3.103-4.45-7.3-4.45-12.59 0-5.407 1.454-9.603 4.362-12.59 2.928-3.006 7.027-4.509 12.298-4.509 3.259 0 6.139.693 8.637 2.079 2.498 1.386 4.421 3.377 5.768 5.973 1.366 2.576 2.05 5.592 2.05 9.047zm-21.491 0c0 2.85.38 5.026 1.142 6.53.761 1.483 2.039 2.225 3.835 2.225 1.776 0 3.026-.742 3.748-2.226.742-1.503 1.112-3.679 1.112-6.529 0-2.83-.37-4.968-1.112-6.412-.742-1.444-2.011-2.167-3.806-2.167-1.757 0-3.016.723-3.777 2.167-.762 1.425-1.142 3.562-1.142 6.412zM212.099 86V67.906c0-2.206-.322-3.865-.967-4.978-.624-1.132-1.639-1.698-3.045-1.698-1.932 0-3.328.77-4.186 2.313-.859 1.542-1.289 4.187-1.289 7.935V86h-11.448V52.827h8.637l1.435 4.099h.674c.976-1.562 2.322-2.733 4.04-3.514 1.737-.78 3.728-1.17 5.973-1.17 3.67 0 6.52 1.063 8.55 3.19 2.049 2.128 3.074 5.124 3.074 8.99V86h-11.448zm35.486-8.462c1.542 0 3.387-.38 5.534-1.142v8.345c-1.542.664-3.016 1.132-4.421 1.405-1.386.293-3.016.44-4.89.44-3.845 0-6.617-.937-8.315-2.811-1.698-1.894-2.548-4.792-2.548-8.696V61.406h-4.011V56.75l5.095-3.601 2.957-6.969h7.495v6.647h8.14v8.579h-8.14v12.912c0 2.147 1.035 3.22 3.104 3.22zM279.792 86V67.906c0-4.451-1.317-6.676-3.953-6.676-1.873 0-3.259.79-4.157 2.371-.879 1.562-1.318 4.168-1.318 7.818V86h-11.448V40.442h11.448v6.47c0 2.928-.156 6.266-.468 10.014h.527c1.093-1.718 2.391-2.928 3.894-3.63 1.503-.703 3.25-1.055 5.241-1.055 3.709 0 6.588 1.074 8.637 3.22 2.069 2.128 3.104 5.115 3.104 8.96V86h-11.507zm30.743 0h-11.448V40.442h11.448V86zm3.924-33.173h12.063l5.621 19.031c.274.996.459 2.196.557 3.602h.234c.156-1.347.39-2.528.703-3.543l5.768-19.09h11.682L337.97 88.108c-1.679 4.49-3.748 7.661-6.207 9.516-2.44 1.854-5.632 2.781-9.575 2.781a23.07 23.07 0 01-4.684-.497v-8.99c1.034.235 2.215.352 3.543.352 1.015 0 1.903-.195 2.664-.585a5.997 5.997 0 001.991-1.67c.566-.702 1.171-1.863 1.815-3.484l-13.058-32.704z" fill="#FFFDE7"/><path d="M371.319 43.194h14.932c5.817 0 10.131.868 12.942 2.606 2.83 1.717 4.245 4.401 4.245 8.052 0 2.4-.615 4.45-1.844 6.148-1.23 1.698-2.85 2.791-4.861 3.28v.292c2.655.703 4.578 1.874 5.768 3.514 1.191 1.64 1.786 3.767 1.786 6.383 0 3.884-1.464 6.948-4.392 9.193-2.908 2.225-6.88 3.338-11.916 3.338h-16.66V43.194zm11.565 16.425h3.484c1.66 0 2.938-.341 3.836-1.024.917-.684 1.376-1.698 1.376-3.045 0-2.401-1.815-3.602-5.446-3.602h-3.25v7.672zm0 8.462v8.989h4.07c3.611 0 5.417-1.523 5.417-4.568 0-1.425-.488-2.518-1.464-3.279-.957-.761-2.352-1.142-4.187-1.142h-3.836zM434.679 86l-1.435-4.128h-.673c-.957 1.522-2.294 2.693-4.011 3.513-1.698.8-3.699 1.2-6.003 1.2-3.65 0-6.49-1.053-8.52-3.162-2.03-2.127-3.045-5.123-3.045-8.988V52.827h11.448V70.95c0 2.166.303 3.806.908 4.918.625 1.113 1.64 1.67 3.045 1.67 1.971 0 3.377-.772 4.216-2.314.84-1.561 1.259-4.187 1.259-7.876V52.827h11.448V86h-8.637zm26.849.586c-2.362 0-4.431-.674-6.207-2.02-1.757-1.347-3.123-3.329-4.099-5.944-.957-2.616-1.435-5.67-1.435-9.165 0-5.387 1.083-9.603 3.25-12.648s5.143-4.568 8.93-4.568c1.855 0 3.475.371 4.861 1.113 1.405.742 2.683 1.99 3.835 3.747h.234a55.131 55.131 0 01-.556-7.788v-8.871h11.536V86h-8.637l-2.46-4.187h-.439c-1.971 3.182-4.909 4.773-8.813 4.773zm4.685-9.048c1.835 0 3.123-.575 3.865-1.727.761-1.152 1.171-2.928 1.229-5.329v-.908c0-2.927-.419-5.006-1.259-6.236-.839-1.25-2.157-1.874-3.952-1.874-1.503 0-2.675.712-3.514 2.137-.82 1.406-1.23 3.416-1.23 6.032 0 2.577.42 4.538 1.259 5.885.84 1.347 2.04 2.02 3.602 2.02zm54.898-24.711v5.534l-4.538 1.668c.625 1.132.937 2.45.937 3.953 0 3.572-1.259 6.344-3.777 8.315-2.499 1.972-6.237 2.957-11.214 2.957-1.23 0-2.206-.078-2.928-.234-.273.508-.41.986-.41 1.435 0 .566.459 1.005 1.376 1.317.918.293 2.118.44 3.602.44h5.504c7.437 0 11.155 3.133 11.155 9.398 0 4.04-1.727 7.183-5.182 9.428-3.435 2.245-8.267 3.367-14.493 3.367-4.704 0-8.335-.79-10.892-2.371-2.538-1.562-3.806-3.816-3.806-6.764 0-3.962 2.459-6.52 7.378-7.67-1.015-.43-1.903-1.123-2.664-2.08-.742-.956-1.113-1.903-1.113-2.84 0-1.034.283-1.942.849-2.723.566-.8 1.747-1.747 3.543-2.84-1.718-.761-3.074-1.952-4.07-3.572-.976-1.62-1.464-3.591-1.464-5.914 0-3.611 1.23-6.412 3.689-8.403 2.46-1.991 5.973-2.987 10.541-2.987.605 0 1.649.068 3.133.205 1.483.137 2.576.264 3.279.38h11.565zm-25.004 37.301c0 .937.507 1.689 1.522 2.255 1.015.585 2.372.878 4.07.878 2.772 0 4.987-.351 6.646-1.054 1.679-.683 2.518-1.571 2.518-2.664 0-.879-.507-1.503-1.522-1.874-1.015-.351-2.469-.527-4.363-.527h-4.479c-1.23 0-2.274.283-3.133.849-.84.586-1.259 1.298-1.259 2.137zm3.601-26.439c0 3.397 1.181 5.095 3.543 5.095 1.093 0 1.932-.42 2.518-1.26.605-.838.908-2.097.908-3.776 0-3.436-1.142-5.153-3.426-5.153-2.362 0-3.543 1.698-3.543 5.094zm42.484 22.897c-5.524 0-9.818-1.464-12.883-4.392-3.045-2.948-4.567-7.135-4.567-12.561 0-5.602 1.415-9.896 4.245-12.883 2.831-3.006 6.871-4.509 12.122-4.509 4.997 0 8.852 1.308 11.565 3.923 2.733 2.597 4.099 6.344 4.099 11.244v5.094h-20.466c.078 1.855.752 3.309 2.02 4.363 1.289 1.054 3.036 1.581 5.241 1.581 2.011 0 3.855-.186 5.534-.556 1.698-.39 3.533-1.045 5.505-1.962v8.227a20.213 20.213 0 01-5.563 1.904c-1.913.35-4.197.527-6.852.527zm-.673-26.557c-1.347 0-2.479.43-3.397 1.289-.898.839-1.425 2.166-1.581 3.982h9.838c-.039-1.601-.498-2.88-1.376-3.836-.859-.956-2.02-1.435-3.484-1.435zm37.975 17.51c1.542 0 3.386-.381 5.534-1.143v8.345c-1.542.664-3.016 1.132-4.422 1.405-1.385.293-3.015.44-4.889.44-3.845 0-6.617-.937-8.315-2.811-1.699-1.894-2.548-4.792-2.548-8.696V61.406h-4.011V56.75l5.095-3.601 2.957-6.969h7.495v6.647h8.14v8.579h-8.14v12.912c0 2.147 1.035 3.22 3.104 3.22z" fill="#51D289"/><path d="M105.564 23h-8.565V7.859h8.565V9.95h-6.09v4.122h5.706v2.071h-5.706v4.754h6.09V23zm5.571-5.851l-3.842-5.603h2.776l2.609 4.008 2.631-4.008h2.755l-3.853 5.603 4.05 5.851h-2.755l-2.828-4.288L109.861 23h-2.754l4.028-5.851zm14.945 6.058c-1.45 0-2.576-.521-3.377-1.564h-.145c.097.967.145 1.554.145 1.76v4.692h-2.433v-16.55h1.967c.056.215.17.726.342 1.534h.124c.76-1.16 1.899-1.74 3.418-1.74 1.429 0 2.541.518 3.335 1.553.801 1.036 1.201 2.49 1.201 4.36 0 1.871-.407 3.332-1.222 4.38-.808 1.05-1.926 1.575-3.355 1.575zm-.591-9.88c-.966 0-1.674.283-2.123.85-.442.566-.663 1.47-.663 2.713v.362c0 1.395.221 2.406.663 3.035.442.621 1.164.932 2.165.932.842 0 1.491-.346 1.947-1.036.455-.69.683-1.674.683-2.951 0-1.285-.228-2.255-.683-2.91-.449-.663-1.112-.995-1.989-.995zm12.998 9.88c-1.782 0-3.176-.518-4.184-1.553-1.001-1.043-1.502-2.476-1.502-4.298 0-1.871.466-3.342 1.398-4.412.932-1.07 2.213-1.605 3.842-1.605 1.512 0 2.707.459 3.584 1.377.877.918 1.315 2.182 1.315 3.79v1.316h-7.633c.035 1.111.335 1.968.901 2.568.566.594 1.364.89 2.393.89.676 0 1.305-.061 1.885-.186a10.153 10.153 0 001.884-.642v1.978a7.455 7.455 0 01-1.802.601c-.607.117-1.301.176-2.081.176zm-.446-10.025c-.773 0-1.394.245-1.864.735-.462.49-.739 1.205-.828 2.144h5.199c-.014-.946-.242-1.66-.684-2.144-.442-.49-1.049-.735-1.823-.735zM155.782 23h-2.444v-7.042c0-.884-.18-1.543-.539-1.979-.352-.434-.915-.652-1.688-.652-1.029 0-1.781.304-2.257.911-.477.608-.715 1.626-.715 3.056V23h-2.434V11.546h1.906l.342 1.502h.124c.345-.546.835-.967 1.47-1.264.636-.297 1.34-.445 2.113-.445 2.748 0 4.122 1.398 4.122 4.194V23zm11.081-3.262c0 1.118-.407 1.978-1.222 2.579-.814.593-1.981.89-3.5.89-1.526 0-2.752-.231-3.677-.694v-2.102c1.347.621 2.6.932 3.76.932 1.498 0 2.247-.452 2.247-1.357 0-.29-.083-.531-.249-.725-.165-.193-.438-.393-.818-.6-.379-.208-.908-.442-1.584-.705-1.319-.51-2.213-1.021-2.683-1.532-.462-.511-.693-1.174-.693-1.989 0-.98.393-1.74 1.18-2.278.794-.546 1.871-.818 3.231-.818 1.347 0 2.621.272 3.822.818l-.787 1.833c-1.236-.511-2.275-.767-3.117-.767-1.285 0-1.927.366-1.927 1.098 0 .36.166.663.497.912.339.248 1.071.59 2.196 1.025.946.366 1.633.7 2.061 1.005.428.303.746.655.953 1.056.207.393.31.866.31 1.419zm7.643 3.47c-1.781 0-3.176-.519-4.184-1.554-1.001-1.043-1.501-2.476-1.501-4.298 0-1.871.466-3.342 1.398-4.412.932-1.07 2.213-1.605 3.842-1.605 1.512 0 2.707.459 3.583 1.377.877.918 1.316 2.182 1.316 3.79v1.316h-7.633c.035 1.111.335 1.968.901 2.568.566.594 1.364.89 2.392.89.677 0 1.305-.061 1.885-.186a10.16 10.16 0 001.885-.642v1.978a7.47 7.47 0 01-1.802.601c-.608.117-1.301.176-2.082.176zm-.445-10.026c-.773 0-1.395.245-1.864.735-.463.49-.739 1.205-.829 2.144h5.199c-.013-.946-.241-1.66-.683-2.144-.442-.49-1.05-.735-1.823-.735zm15.359 6.556c0 1.118-.408 1.978-1.222 2.579-.815.593-1.982.89-3.501.89-1.526 0-2.751-.231-3.676-.694v-2.102c1.346.621 2.599.932 3.759.932 1.498 0 2.247-.452 2.247-1.357 0-.29-.082-.531-.248-.725-.166-.193-.439-.393-.818-.6-.38-.208-.908-.442-1.585-.705-1.319-.51-2.213-1.021-2.682-1.532-.463-.511-.694-1.174-.694-1.989 0-.98.393-1.74 1.181-2.278.794-.546 1.871-.818 3.231-.818 1.346 0 2.62.272 3.821.818l-.787 1.833c-1.236-.511-2.275-.767-3.117-.767-1.284 0-1.926.366-1.926 1.098 0 .36.165.663.497.912.338.248 1.07.59 2.195 1.025.946.366 1.633.7 2.061 1.005.428.303.746.655.953 1.056.207.393.311.866.311 1.419z" fill="#FFE600"/><path d="M50 27.6c7.12 0 9.76 3.4 10 8.4h8.84c-.28-6.88-4.48-13.2-12.84-15.24V12H44v8.64c-1.56.32-3 .84-4.4 1.44l6.04 6.04c1.28-.32 2.76-.52 4.36-.52zM21.88 15.68l-5.64 5.64L30 35.08c0 8.32 6.24 12.88 15.64 15.64l14.04 14.04c-1.36 1.96-4.2 3.64-9.68 3.64-8.24 0-11.48-3.68-11.92-8.4h-8.8c.48 8.76 7.04 13.68 14.72 15.32V84h12v-8.6c3.84-.72 7.32-2.2 9.84-4.48l8.88 8.88 5.64-5.64-58.48-58.48z" fill="#fff" fill-opacity=".31"/></svg>