<?xml version="1.0" encoding="UTF-8" standalone="no" ?>
<!DOCTYPE svg PUBLIC "-//W3C//DTD SVG 1.1//EN" "http://www.w3.org/Graphics/SVG/1.1/DTD/svg11.dtd">
<svg xmlns="http://www.w3.org/2000/svg" xmlns:xlink="http://www.w3.org/1999/xlink" version="1.1" width="570" height="100" viewBox="0 0 570 100" xml:space="preserve">
<desc>Created with Fabric.js 5.2.4</desc>
<defs>
</defs>
<rect x="0" y="0" width="100%" height="100%" fill="transparent"></rect>
<g transform="matrix(1 0 0 1 285 50)" id="72dc320b-d6e5-43ff-9260-39753b7e046d"  >
<rect style="stroke: none; stroke-width: 1; stroke-dasharray: none; stroke-linecap: butt; stroke-dashoffset: 0; stroke-linejoin: miter; stroke-miterlimit: 4; fill: rgb(0,0,0); fill-opacity: 0.81; fill-rule: nonzero; opacity: 1; visibility: hidden;" vector-effect="non-scaling-stroke"  x="-285" y="-50" rx="0" ry="0" width="570" height="100" />
</g>
<g transform="matrix(0 0 0 0 0 0)" id="e36f5090-50e6-42d1-89cb-bc91e5ee3d42"  >
</g>
<g transform="matrix(1.1 0 0 1.01 222.37 64.99)"  >
<path style="stroke: none; stroke-width: 1; stroke-dasharray: none; stroke-linecap: butt; stroke-dashoffset: 0; stroke-linejoin: miter; stroke-miterlimit: 4; fill: rgb(81,210,137); fill-rule: nonzero; opacity: 1;" vector-effect="non-scaling-stroke"  transform=" translate(-478.17, -70.42)" d="M 371.319 43.194 L 386.25100000000003 43.194 C 392.06800000000004 43.194 396.38200000000006 44.062000000000005 399.19300000000004 45.800000000000004 C 402.023 47.517 403.43800000000005 50.20100000000001 403.43800000000005 53.852000000000004 C 403.43800000000005 56.252 402.82300000000004 58.30200000000001 401.59400000000005 60 C 400.36400000000003 61.698 398.744 62.791 396.73300000000006 63.28 L 396.73300000000006 63.572 C 399.38800000000003 64.275 401.31100000000004 65.446 402.50100000000003 67.086 C 403.692 68.726 404.28700000000003 70.853 404.28700000000003 73.469 C 404.28700000000003 77.353 402.82300000000004 80.417 399.89500000000004 82.66199999999999 C 396.987 84.88699999999999 393.01500000000004 85.99999999999999 387.97900000000004 85.99999999999999 L 371.319 85.99999999999999 L 371.319 43.194 z M 382.884 59.619 L 386.368 59.619 C 388.028 59.619 389.306 59.278 390.204 58.595 C 391.121 57.911 391.58 56.897 391.58 55.55 C 391.58 53.149 389.765 51.948 386.13399999999996 51.948 L 382.88399999999996 51.948 L 382.88399999999996 59.62 z M 382.884 68.081 L 382.884 77.07000000000001 L 386.954 77.07000000000001 C 390.565 77.07000000000001 392.371 75.54700000000001 392.371 72.50200000000001 C 392.371 71.07700000000001 391.883 69.98400000000001 390.907 69.22300000000001 C 389.95 68.46200000000002 388.555 68.08100000000002 386.71999999999997 68.08100000000002 L 382.88399999999996 68.08100000000002 z M 434.679 86 L 433.24399999999997 81.872 L 432.57099999999997 81.872 C 431.614 83.394 430.277 84.565 428.55999999999995 85.385 C 426.86199999999997 86.185 424.86099999999993 86.58500000000001 422.55699999999996 86.58500000000001 C 418.907 86.58500000000001 416.06699999999995 85.53200000000001 414.037 83.423 C 412.007 81.296 410.99199999999996 78.3 410.99199999999996 74.435 L 410.99199999999996 52.827 L 422.43999999999994 52.827 L 422.43999999999994 70.95 C 422.43999999999994 73.116 422.74299999999994 74.756 423.34799999999996 75.86800000000001 C 423.97299999999996 76.98100000000001 424.98799999999994 77.53800000000001 426.393 77.53800000000001 C 428.364 77.53800000000001 429.77 76.766 430.609 75.22400000000002 C 431.44899999999996 73.66300000000001 431.868 71.03700000000002 431.868 67.34800000000001 L 431.868 52.827 L 443.316 52.827 L 443.316 86 L 434.679 86 z M 461.52799999999996 86.586 C 459.16599999999994 86.586 457.097 85.91199999999999 455.32099999999997 84.566 C 453.56399999999996 83.21900000000001 452.198 81.23700000000001 451.222 78.622 C 450.265 76.006 449.787 72.952 449.787 69.457 C 449.787 64.07 450.87 59.85399999999999 453.037 56.809 C 455.20399999999995 53.764 458.17999999999995 52.241 461.967 52.241 C 463.822 52.241 465.442 52.612 466.828 53.354 C 468.23299999999995 54.096 469.51099999999997 55.344 470.66299999999995 57.101 L 470.89699999999993 57.101 C 470.5278418093431 54.521402679359845 470.34204265135037 51.91887778287108 470.34099999999995 49.31300000000002 L 470.34099999999995 40.442 L 481.87699999999995 40.442 L 481.87699999999995 86 L 473.23999999999995 86 L 470.78 81.813 L 470.34099999999995 81.813 C 468.36999999999995 84.995 465.43199999999996 86.586 461.52799999999996 86.586 z M 466.21299999999997 77.538 C 468.04799999999994 77.538 469.33599999999996 76.963 470.078 75.81099999999999 C 470.839 74.65899999999999 471.24899999999997 72.883 471.30699999999996 70.482 L 471.30699999999996 69.574 C 471.30699999999996 66.64699999999999 470.888 64.568 470.04799999999994 63.338 C 469.20899999999995 62.088 467.89099999999996 61.464 466.09599999999995 61.464 C 464.59299999999996 61.464 463.42099999999994 62.176 462.58199999999994 63.601 C 461.76199999999994 65.007 461.3519999999999 67.017 461.3519999999999 69.633 C 461.3519999999999 72.21 461.77199999999993 74.17099999999999 462.61099999999993 75.518 C 463.4509999999999 76.865 464.65099999999995 77.538 466.2129999999999 77.538 z M 521.111 52.827 L 521.111 58.361 L 516.573 60.028999999999996 C 517.198 61.160999999999994 517.51 62.479 517.51 63.982 C 517.51 67.554 516.251 70.326 513.733 72.297 C 511.2339999999999 74.26899999999999 507.4959999999999 75.25399999999999 502.51899999999995 75.25399999999999 C 501.28899999999993 75.25399999999999 500.31299999999993 75.17599999999999 499.59099999999995 75.02 C 499.3179999999999 75.52799999999999 499.1809999999999 76.006 499.1809999999999 76.455 C 499.1809999999999 77.021 499.63999999999993 77.46 500.5569999999999 77.77199999999999 C 501.4749999999999 78.065 502.6749999999999 78.21199999999999 504.1589999999999 78.21199999999999 L 509.6629999999999 78.21199999999999 C 517.0999999999999 78.21199999999999 520.8179999999999 81.34499999999998 520.8179999999999 87.60999999999999 C 520.8179999999999 91.64999999999999 519.0909999999999 94.79299999999998 515.6359999999999 97.03799999999998 C 512.2009999999999 99.28299999999999 507.36899999999986 100.40499999999999 501.14299999999986 100.40499999999999 C 496.43899999999985 100.40499999999999 492.8079999999999 99.61499999999998 490.25099999999986 98.03399999999999 C 487.71299999999985 96.472 486.4449999999999 94.21799999999999 486.4449999999999 91.27 C 486.4449999999999 87.30799999999999 488.9039999999999 84.75 493.82299999999987 83.6 C 492.8079999999999 83.16999999999999 491.91999999999985 82.47699999999999 491.1589999999999 81.52 C 490.41699999999986 80.564 490.0459999999999 79.61699999999999 490.0459999999999 78.67999999999999 C 490.0459999999999 77.64599999999999 490.3289999999999 76.738 490.89499999999987 75.957 C 491.46099999999984 75.157 492.6419999999999 74.21 494.4379999999999 73.11699999999999 C 492.71999999999986 72.356 491.36399999999986 71.16499999999999 490.3679999999999 69.54499999999999 C 489.3919999999999 67.92499999999998 488.9039999999999 65.954 488.9039999999999 63.630999999999986 C 488.9039999999999 60.01999999999999 490.1339999999999 57.21899999999999 492.5929999999999 55.22799999999999 C 495.0529999999999 53.23699999999999 498.5659999999999 52.240999999999985 503.1339999999999 52.240999999999985 C 503.7389999999999 52.240999999999985 504.7829999999999 52.30899999999998 506.2669999999999 52.445999999999984 C 507.7499999999999 52.582999999999984 508.8429999999999 52.70999999999999 509.5459999999999 52.825999999999986 L 521.1109999999999 52.825999999999986 z M 496.10699999999997 90.128 C 496.10699999999997 91.065 496.614 91.81700000000001 497.62899999999996 92.383 C 498.64399999999995 92.96799999999999 500.001 93.261 501.69899999999996 93.261 C 504.47099999999995 93.261 506.686 92.91 508.34499999999997 92.207 C 510.02399999999994 91.52399999999999 510.86299999999994 90.636 510.86299999999994 89.54299999999999 C 510.86299999999994 88.66399999999999 510.35599999999994 88.03999999999999 509.34099999999995 87.669 C 508.32599999999996 87.318 506.87199999999996 87.142 504.97799999999995 87.142 L 500.49899999999997 87.142 C 499.26899999999995 87.142 498.22499999999997 87.425 497.366 87.991 C 496.526 88.577 496.10699999999997 89.289 496.10699999999997 90.128 z M 499.70799999999997 63.689 C 499.70799999999997 67.086 500.88899999999995 68.784 503.251 68.784 C 504.344 68.784 505.183 68.364 505.76899999999995 67.524 C 506.37399999999997 66.686 506.67699999999996 65.427 506.67699999999996 63.748000000000005 C 506.67699999999996 60.312000000000005 505.53499999999997 58.595000000000006 503.251 58.595000000000006 C 500.88899999999995 58.595000000000006 499.70799999999997 60.293000000000006 499.70799999999997 63.68900000000001 z M 542.192 86.586 C 536.668 86.586 532.374 85.122 529.309 82.194 C 526.264 79.24600000000001 524.742 75.059 524.742 69.63300000000001 C 524.742 64.031 526.1569999999999 59.73700000000001 528.987 56.750000000000014 C 531.818 53.744000000000014 535.858 52.241000000000014 541.1089999999999 52.241000000000014 C 546.1059999999999 52.241000000000014 549.9609999999999 53.549000000000014 552.674 56.164000000000016 C 555.4069999999999 58.76100000000002 556.773 62.50800000000002 556.773 67.40800000000002 L 556.773 72.50200000000001 L 536.307 72.50200000000001 C 536.385 74.35700000000001 537.059 75.811 538.327 76.86500000000001 C 539.616 77.91900000000001 541.3629999999999 78.44600000000001 543.568 78.44600000000001 C 545.579 78.44600000000001 547.423 78.26 549.102 77.89000000000001 C 550.8 77.50000000000001 552.635 76.84500000000001 554.607 75.92800000000001 L 554.607 84.15500000000002 C 552.8553820596243 85.05742172543822 550.9812246190546 85.69887341820196 549.044 86.05900000000001 C 547.131 86.409 544.847 86.58600000000001 542.192 86.58600000000001 z M 541.519 60.028999999999996 C 540.172 60.028999999999996 539.04 60.458999999999996 538.122 61.318 C 537.2239999999999 62.157 536.697 63.483999999999995 536.5409999999999 65.3 L 546.3789999999999 65.3 C 546.3399999999999 63.699 545.8809999999999 62.419999999999995 545.0029999999999 61.464 C 544.1439999999999 60.507999999999996 542.983 60.028999999999996 541.5189999999999 60.028999999999996 z M 579.494 77.539 C 581.0360000000001 77.539 582.88 77.158 585.028 76.396 L 585.028 84.741 C 583.486 85.405 582.0120000000001 85.873 580.606 86.146 C 579.221 86.43900000000001 577.591 86.586 575.717 86.586 C 571.872 86.586 569.1 85.649 567.4019999999999 83.775 C 565.703 81.881 564.8539999999999 78.983 564.8539999999999 75.07900000000001 L 564.8539999999999 61.406 L 560.843 61.406 L 560.843 56.75 L 565.938 53.149 L 568.895 46.18 L 576.39 46.18 L 576.39 52.827 L 584.53 52.827 L 584.53 61.406 L 576.39 61.406 L 576.39 74.318 C 576.39 76.465 577.425 77.538 579.494 77.538 z" stroke-linecap="round" />
</g>
<g transform="matrix(1.1 0 0 1.01 52.73 41.45)"  >
<path style="stroke: none; stroke-width: 1; stroke-dasharray: none; stroke-linecap: butt; stroke-dashoffset: 0; stroke-linejoin: miter; stroke-miterlimit: 4; fill: rgb(255,255,255); fill-opacity: 0.31; fill-rule: nonzero; opacity: 1;" vector-effect="non-scaling-stroke"  transform=" translate(-48.3, -48)" d="M 50 27.6 C 57.12 27.6 59.76 31 60 36 L 68.84 36 C 68.56 29.12 64.36 22.8 56 20.759999999999998 L 56 12 L 44 12 L 44 20.64 C 42.44 20.96 41 21.48 39.6 22.080000000000002 L 45.64 28.12 C 46.92 27.8 48.4 27.6 50 27.6 z M 21.88 15.68 L 16.24 21.32 L 30 35.08 C 30 43.4 36.24 47.96 45.64 50.72 L 59.68 64.75999999999999 C 58.32 66.71999999999998 55.48 68.39999999999999 50 68.39999999999999 C 41.76 68.39999999999999 38.519999999999996 64.71999999999998 38.08 59.99999999999999 L 29.279999999999998 59.99999999999999 C 29.759999999999998 68.75999999999999 36.32 73.67999999999999 44 75.32 L 44 84 L 56 84 L 56 75.4 C 59.84 74.68 63.32 73.2 65.84 70.92 L 74.72 79.8 L 80.36 74.16 L 21.880000000000003 15.68 z" stroke-linecap="round" />
</g>
<g transform="matrix(0 0 0 0 853.77 187.34)"  >
<g style=""   >
		<g transform="matrix(1 0 0 1 -70.14 18.92)"  >
<path style="stroke: none; stroke-width: 1; stroke-dasharray: none; stroke-linecap: butt; stroke-dashoffset: 0; stroke-linejoin: miter; stroke-miterlimit: 4; fill: rgb(255,253,231); fill-rule: nonzero; opacity: 1;" vector-effect="non-scaling-stroke"  transform=" translate(-223.36, -70.42)" d="M 114.277 86 L 105.522 55.169 L 105.259 55.169 C 105.669 60.419 105.874 64.499 105.874 67.408 L 105.874 86 L 95.626 86 L 95.626 43.194 L 111.027 43.194 L 119.957 73.586 L 120.19099999999999 73.586 L 128.946 43.194 L 144.376 43.194 L 144.376 86 L 133.748 86 L 133.748 67.232 C 133.748 66.256 133.75699999999998 65.172 133.777 63.982 C 133.81599999999997 62.792 133.95299999999997 59.873 134.18699999999998 55.228 L 133.92299999999997 55.228 L 125.286 86 L 114.277 86 z M 184.606 69.34 C 184.606 74.767 183.142 79.00200000000001 180.214 82.047 C 177.305 85.073 173.226 86.586 167.975 86.586 C 162.939 86.586 158.928 85.03399999999999 155.941 81.92999999999999 C 152.974 78.827 151.491 74.63 151.491 69.33999999999999 C 151.491 63.93299999999999 152.94500000000002 59.73699999999999 155.853 56.749999999999986 C 158.781 53.743999999999986 162.88 52.240999999999985 168.151 52.240999999999985 C 171.41 52.240999999999985 174.29000000000002 52.93399999999998 176.788 54.319999999999986 C 179.286 55.70599999999999 181.209 57.69699999999999 182.556 60.292999999999985 C 183.92200000000003 62.868999999999986 184.60600000000002 65.88499999999999 184.60600000000002 69.33999999999999 z M 163.115 69.34 C 163.115 72.19 163.495 74.366 164.257 75.87 C 165.018 77.35300000000001 166.296 78.095 168.092 78.095 C 169.86800000000002 78.095 171.11800000000002 77.353 171.84 75.869 C 172.582 74.366 172.952 72.19 172.952 69.34 C 172.952 66.51 172.582 64.372 171.84 62.928000000000004 C 171.098 61.484 169.829 60.761 168.034 60.761 C 166.277 60.761 165.018 61.484 164.257 62.928000000000004 C 163.495 64.35300000000001 163.115 66.49000000000001 163.115 69.34 z M 212.099 86 L 212.099 67.906 C 212.099 65.7 211.777 64.04100000000001 211.13199999999998 62.928000000000004 C 210.50799999999998 61.79600000000001 209.49299999999997 61.230000000000004 208.087 61.230000000000004 C 206.155 61.230000000000004 204.759 62.00000000000001 203.90099999999998 63.543000000000006 C 203.04199999999997 65.08500000000001 202.612 67.73 202.612 71.47800000000001 L 202.612 86 L 191.164 86 L 191.164 52.827 L 199.801 52.827 L 201.236 56.926 L 201.91 56.926 C 202.886 55.364000000000004 204.232 54.193000000000005 205.95 53.412 C 207.68699999999998 52.632 209.678 52.242 211.923 52.242 C 215.593 52.242 218.443 53.305 220.473 55.431999999999995 C 222.52200000000002 57.559999999999995 223.54700000000003 60.556 223.54700000000003 64.422 L 223.54700000000003 86 L 212.09900000000002 86 z M 247.58499999999998 77.538 C 249.12699999999998 77.538 250.97199999999998 77.158 253.11899999999997 76.396 L 253.11899999999997 84.741 C 251.57699999999997 85.405 250.10299999999998 85.873 248.69799999999998 86.146 C 247.31199999999998 86.43900000000001 245.682 86.586 243.808 86.586 C 239.963 86.586 237.191 85.649 235.493 83.775 C 233.795 81.881 232.945 78.983 232.945 75.07900000000001 L 232.945 61.406 L 228.934 61.406 L 228.934 56.75 L 234.029 53.149 L 236.986 46.18 L 244.481 46.18 L 244.481 52.827 L 252.62099999999998 52.827 L 252.62099999999998 61.406 L 244.481 61.406 L 244.481 74.318 C 244.481 76.465 245.516 77.538 247.585 77.538 z M 279.792 86 L 279.792 67.906 C 279.792 63.455000000000005 278.47499999999997 61.230000000000004 275.839 61.230000000000004 C 273.966 61.230000000000004 272.58 62.02 271.682 63.601000000000006 C 270.803 65.16300000000001 270.36400000000003 67.769 270.36400000000003 71.41900000000001 L 270.36400000000003 86 L 258.91600000000005 86 L 258.91600000000005 40.442 L 270.36400000000003 40.442 L 270.36400000000003 46.912 C 270.36400000000003 49.839999999999996 270.208 53.178 269.896 56.926 L 270.423 56.926 C 271.516 55.208 272.814 53.998000000000005 274.317 53.296 C 275.82 52.592999999999996 277.567 52.241 279.558 52.241 C 283.267 52.241 286.146 53.315 288.195 55.461 C 290.264 57.589 291.299 60.576 291.299 64.42099999999999 L 291.299 86 L 279.792 86 z M 310.53499999999997 86 L 299.087 86 L 299.087 40.442 L 310.53499999999997 40.442 L 310.53499999999997 86 z M 314.45899999999995 52.827 L 326.52199999999993 52.827 L 332.1429999999999 71.858 C 332.4169999999999 72.854 332.6019999999999 74.054 332.69999999999993 75.46000000000001 L 332.9339999999999 75.46000000000001 C 333.0899999999999 74.11300000000001 333.3239999999999 72.932 333.6369999999999 71.917 L 339.40499999999986 52.827 L 351.0869999999999 52.827 L 337.97 88.108 C 336.29100000000005 92.598 334.22200000000004 95.769 331.76300000000003 97.62400000000001 C 329.32300000000004 99.47800000000001 326.13100000000003 100.40500000000002 322.18800000000005 100.40500000000002 C 320.61379925484687 100.39957650875829 319.04428733320697 100.23304204568078 317.504 99.90800000000002 L 317.504 90.91800000000002 C 318.538 91.15300000000002 319.719 91.27000000000002 321.047 91.27000000000002 C 322.062 91.27000000000002 322.95000000000005 91.07500000000003 323.711 90.68500000000003 C 324.4887481839613 90.28054413763911 325.16836868874293 89.7104957986209 325.702 89.01500000000003 C 326.268 88.31300000000003 326.873 87.15200000000003 327.517 85.53100000000003 L 314.459 52.827000000000034 z" stroke-linecap="round" />
</g>
		<g transform="matrix(1 0 0 1 184.67 18.92)"  >
<path style="stroke: none; stroke-width: 1; stroke-dasharray: none; stroke-linecap: butt; stroke-dashoffset: 0; stroke-linejoin: miter; stroke-miterlimit: 4; fill: rgb(81,210,137); fill-rule: nonzero; opacity: 1;" vector-effect="non-scaling-stroke"  transform=" translate(-478.17, -70.42)" d="M 371.319 43.194 L 386.25100000000003 43.194 C 392.06800000000004 43.194 396.38200000000006 44.062000000000005 399.19300000000004 45.800000000000004 C 402.023 47.517 403.43800000000005 50.20100000000001 403.43800000000005 53.852000000000004 C 403.43800000000005 56.252 402.82300000000004 58.30200000000001 401.59400000000005 60 C 400.36400000000003 61.698 398.744 62.791 396.73300000000006 63.28 L 396.73300000000006 63.572 C 399.38800000000003 64.275 401.31100000000004 65.446 402.50100000000003 67.086 C 403.692 68.726 404.28700000000003 70.853 404.28700000000003 73.469 C 404.28700000000003 77.353 402.82300000000004 80.417 399.89500000000004 82.66199999999999 C 396.987 84.88699999999999 393.01500000000004 85.99999999999999 387.97900000000004 85.99999999999999 L 371.319 85.99999999999999 L 371.319 43.194 z M 382.884 59.619 L 386.368 59.619 C 388.028 59.619 389.306 59.278 390.204 58.595 C 391.121 57.911 391.58 56.897 391.58 55.55 C 391.58 53.149 389.765 51.948 386.13399999999996 51.948 L 382.88399999999996 51.948 L 382.88399999999996 59.62 z M 382.884 68.081 L 382.884 77.07000000000001 L 386.954 77.07000000000001 C 390.565 77.07000000000001 392.371 75.54700000000001 392.371 72.50200000000001 C 392.371 71.07700000000001 391.883 69.98400000000001 390.907 69.22300000000001 C 389.95 68.46200000000002 388.555 68.08100000000002 386.71999999999997 68.08100000000002 L 382.88399999999996 68.08100000000002 z M 434.679 86 L 433.24399999999997 81.872 L 432.57099999999997 81.872 C 431.614 83.394 430.277 84.565 428.55999999999995 85.385 C 426.86199999999997 86.185 424.86099999999993 86.58500000000001 422.55699999999996 86.58500000000001 C 418.907 86.58500000000001 416.06699999999995 85.53200000000001 414.037 83.423 C 412.007 81.296 410.99199999999996 78.3 410.99199999999996 74.435 L 410.99199999999996 52.827 L 422.43999999999994 52.827 L 422.43999999999994 70.95 C 422.43999999999994 73.116 422.74299999999994 74.756 423.34799999999996 75.86800000000001 C 423.97299999999996 76.98100000000001 424.98799999999994 77.53800000000001 426.393 77.53800000000001 C 428.364 77.53800000000001 429.77 76.766 430.609 75.22400000000002 C 431.44899999999996 73.66300000000001 431.868 71.03700000000002 431.868 67.34800000000001 L 431.868 52.827 L 443.316 52.827 L 443.316 86 L 434.679 86 z M 461.52799999999996 86.586 C 459.16599999999994 86.586 457.097 85.91199999999999 455.32099999999997 84.566 C 453.56399999999996 83.21900000000001 452.198 81.23700000000001 451.222 78.622 C 450.265 76.006 449.787 72.952 449.787 69.457 C 449.787 64.07 450.87 59.85399999999999 453.037 56.809 C 455.20399999999995 53.764 458.17999999999995 52.241 461.967 52.241 C 463.822 52.241 465.442 52.612 466.828 53.354 C 468.23299999999995 54.096 469.51099999999997 55.344 470.66299999999995 57.101 L 470.89699999999993 57.101 C 470.5278418093431 54.521402679359845 470.34204265135037 51.91887778287108 470.34099999999995 49.31300000000002 L 470.34099999999995 40.442 L 481.87699999999995 40.442 L 481.87699999999995 86 L 473.23999999999995 86 L 470.78 81.813 L 470.34099999999995 81.813 C 468.36999999999995 84.995 465.43199999999996 86.586 461.52799999999996 86.586 z M 466.21299999999997 77.538 C 468.04799999999994 77.538 469.33599999999996 76.963 470.078 75.81099999999999 C 470.839 74.65899999999999 471.24899999999997 72.883 471.30699999999996 70.482 L 471.30699999999996 69.574 C 471.30699999999996 66.64699999999999 470.888 64.568 470.04799999999994 63.338 C 469.20899999999995 62.088 467.89099999999996 61.464 466.09599999999995 61.464 C 464.59299999999996 61.464 463.42099999999994 62.176 462.58199999999994 63.601 C 461.76199999999994 65.007 461.3519999999999 67.017 461.3519999999999 69.633 C 461.3519999999999 72.21 461.77199999999993 74.17099999999999 462.61099999999993 75.518 C 463.4509999999999 76.865 464.65099999999995 77.538 466.2129999999999 77.538 z M 521.111 52.827 L 521.111 58.361 L 516.573 60.028999999999996 C 517.198 61.160999999999994 517.51 62.479 517.51 63.982 C 517.51 67.554 516.251 70.326 513.733 72.297 C 511.2339999999999 74.26899999999999 507.4959999999999 75.25399999999999 502.51899999999995 75.25399999999999 C 501.28899999999993 75.25399999999999 500.31299999999993 75.17599999999999 499.59099999999995 75.02 C 499.3179999999999 75.52799999999999 499.1809999999999 76.006 499.1809999999999 76.455 C 499.1809999999999 77.021 499.63999999999993 77.46 500.5569999999999 77.77199999999999 C 501.4749999999999 78.065 502.6749999999999 78.21199999999999 504.1589999999999 78.21199999999999 L 509.6629999999999 78.21199999999999 C 517.0999999999999 78.21199999999999 520.8179999999999 81.34499999999998 520.8179999999999 87.60999999999999 C 520.8179999999999 91.64999999999999 519.0909999999999 94.79299999999998 515.6359999999999 97.03799999999998 C 512.2009999999999 99.28299999999999 507.36899999999986 100.40499999999999 501.14299999999986 100.40499999999999 C 496.43899999999985 100.40499999999999 492.8079999999999 99.61499999999998 490.25099999999986 98.03399999999999 C 487.71299999999985 96.472 486.4449999999999 94.21799999999999 486.4449999999999 91.27 C 486.4449999999999 87.30799999999999 488.9039999999999 84.75 493.82299999999987 83.6 C 492.8079999999999 83.16999999999999 491.91999999999985 82.47699999999999 491.1589999999999 81.52 C 490.41699999999986 80.564 490.0459999999999 79.61699999999999 490.0459999999999 78.67999999999999 C 490.0459999999999 77.64599999999999 490.3289999999999 76.738 490.89499999999987 75.957 C 491.46099999999984 75.157 492.6419999999999 74.21 494.4379999999999 73.11699999999999 C 492.71999999999986 72.356 491.36399999999986 71.16499999999999 490.3679999999999 69.54499999999999 C 489.3919999999999 67.92499999999998 488.9039999999999 65.954 488.9039999999999 63.630999999999986 C 488.9039999999999 60.01999999999999 490.1339999999999 57.21899999999999 492.5929999999999 55.22799999999999 C 495.0529999999999 53.23699999999999 498.5659999999999 52.240999999999985 503.1339999999999 52.240999999999985 C 503.7389999999999 52.240999999999985 504.7829999999999 52.30899999999998 506.2669999999999 52.445999999999984 C 507.7499999999999 52.582999999999984 508.8429999999999 52.70999999999999 509.5459999999999 52.825999999999986 L 521.1109999999999 52.825999999999986 z M 496.10699999999997 90.128 C 496.10699999999997 91.065 496.614 91.81700000000001 497.62899999999996 92.383 C 498.64399999999995 92.96799999999999 500.001 93.261 501.69899999999996 93.261 C 504.47099999999995 93.261 506.686 92.91 508.34499999999997 92.207 C 510.02399999999994 91.52399999999999 510.86299999999994 90.636 510.86299999999994 89.54299999999999 C 510.86299999999994 88.66399999999999 510.35599999999994 88.03999999999999 509.34099999999995 87.669 C 508.32599999999996 87.318 506.87199999999996 87.142 504.97799999999995 87.142 L 500.49899999999997 87.142 C 499.26899999999995 87.142 498.22499999999997 87.425 497.366 87.991 C 496.526 88.577 496.10699999999997 89.289 496.10699999999997 90.128 z M 499.70799999999997 63.689 C 499.70799999999997 67.086 500.88899999999995 68.784 503.251 68.784 C 504.344 68.784 505.183 68.364 505.76899999999995 67.524 C 506.37399999999997 66.686 506.67699999999996 65.427 506.67699999999996 63.748000000000005 C 506.67699999999996 60.312000000000005 505.53499999999997 58.595000000000006 503.251 58.595000000000006 C 500.88899999999995 58.595000000000006 499.70799999999997 60.293000000000006 499.70799999999997 63.68900000000001 z M 542.192 86.586 C 536.668 86.586 532.374 85.122 529.309 82.194 C 526.264 79.24600000000001 524.742 75.059 524.742 69.63300000000001 C 524.742 64.031 526.1569999999999 59.73700000000001 528.987 56.750000000000014 C 531.818 53.744000000000014 535.858 52.241000000000014 541.1089999999999 52.241000000000014 C 546.1059999999999 52.241000000000014 549.9609999999999 53.549000000000014 552.674 56.164000000000016 C 555.4069999999999 58.76100000000002 556.773 62.50800000000002 556.773 67.40800000000002 L 556.773 72.50200000000001 L 536.307 72.50200000000001 C 536.385 74.35700000000001 537.059 75.811 538.327 76.86500000000001 C 539.616 77.91900000000001 541.3629999999999 78.44600000000001 543.568 78.44600000000001 C 545.579 78.44600000000001 547.423 78.26 549.102 77.89000000000001 C 550.8 77.50000000000001 552.635 76.84500000000001 554.607 75.92800000000001 L 554.607 84.15500000000002 C 552.8553820596243 85.05742172543822 550.9812246190546 85.69887341820196 549.044 86.05900000000001 C 547.131 86.409 544.847 86.58600000000001 542.192 86.58600000000001 z M 541.519 60.028999999999996 C 540.172 60.028999999999996 539.04 60.458999999999996 538.122 61.318 C 537.2239999999999 62.157 536.697 63.483999999999995 536.5409999999999 65.3 L 546.3789999999999 65.3 C 546.3399999999999 63.699 545.8809999999999 62.419999999999995 545.0029999999999 61.464 C 544.1439999999999 60.507999999999996 542.983 60.028999999999996 541.5189999999999 60.028999999999996 z M 579.494 77.539 C 581.0360000000001 77.539 582.88 77.158 585.028 76.396 L 585.028 84.741 C 583.486 85.405 582.0120000000001 85.873 580.606 86.146 C 579.221 86.43900000000001 577.591 86.586 575.717 86.586 C 571.872 86.586 569.1 85.649 567.4019999999999 83.775 C 565.703 81.881 564.8539999999999 78.983 564.8539999999999 75.07900000000001 L 564.8539999999999 61.406 L 560.843 61.406 L 560.843 56.75 L 565.938 53.149 L 568.895 46.18 L 576.39 46.18 L 576.39 52.827 L 584.53 52.827 L 584.53 61.406 L 576.39 61.406 L 576.39 74.318 C 576.39 76.465 577.425 77.538 579.494 77.538 z" stroke-linecap="round" />
</g>
		<g transform="matrix(1 0 0 1 -150.29 -33.52)"  >
<path style="stroke: none; stroke-width: 1; stroke-dasharray: none; stroke-linecap: butt; stroke-dashoffset: 0; stroke-linejoin: miter; stroke-miterlimit: 4; fill: rgb(255,230,0); fill-rule: nonzero; opacity: 1;" vector-effect="non-scaling-stroke"  transform=" translate(-143.21, -17.98)" d="M 105.564 23 L 96.999 23 L 96.999 7.859 L 105.564 7.859 L 105.564 9.95 L 99.47399999999999 9.95 L 99.47399999999999 14.072 L 105.17999999999999 14.072 L 105.17999999999999 16.143 L 99.47399999999999 16.143 L 99.47399999999999 20.897 L 105.564 20.897 L 105.564 23 z M 111.13499999999999 17.149 L 107.29299999999999 11.546000000000001 L 110.06899999999999 11.546000000000001 L 112.67799999999998 15.554000000000002 L 115.30899999999998 11.546000000000003 L 118.06399999999998 11.546000000000003 L 114.21099999999998 17.149 L 118.26099999999998 23 L 115.50599999999999 23 L 112.67799999999998 18.712 L 109.861 23 L 107.107 23 L 111.135 17.149 z M 126.07999999999998 23.207 C 124.62999999999998 23.207 123.50399999999999 22.686 122.70299999999999 21.643 L 122.55799999999999 21.643 C 122.65499999999999 22.61 122.70299999999999 23.197 122.70299999999999 23.403000000000002 L 122.70299999999999 28.095000000000002 L 120.26999999999998 28.095000000000002 L 120.26999999999998 11.545000000000002 L 122.23699999999998 11.545000000000002 C 122.29299999999998 11.760000000000002 122.40699999999998 12.271 122.57899999999998 13.079000000000002 L 122.70299999999997 13.079000000000002 C 123.46299999999998 11.919000000000002 124.60199999999998 11.339000000000002 126.12099999999998 11.339000000000002 C 127.54999999999998 11.339000000000002 128.66199999999998 11.857000000000003 129.456 12.892000000000003 C 130.25699999999998 13.928000000000003 130.65699999999998 15.382000000000003 130.65699999999998 17.252000000000002 C 130.65699999999998 19.123 130.24999999999997 20.584000000000003 129.43499999999997 21.632 C 128.62699999999998 22.682000000000002 127.50899999999997 23.207 126.07999999999997 23.207 z M 125.48899999999999 13.327 C 124.523 13.327 123.81499999999998 13.61 123.36599999999999 14.177 C 122.92399999999999 14.743 122.70299999999999 15.647 122.70299999999999 16.89 L 122.70299999999999 17.252 C 122.70299999999999 18.647 122.92399999999999 19.657999999999998 123.36599999999999 20.287 C 123.80799999999998 20.907999999999998 124.52999999999999 21.218999999999998 125.53099999999999 21.218999999999998 C 126.37299999999999 21.218999999999998 127.02199999999999 20.872999999999998 127.478 20.182999999999996 C 127.93299999999999 19.492999999999995 128.161 18.508999999999997 128.161 17.231999999999996 C 128.161 15.946999999999996 127.933 14.976999999999997 127.478 14.321999999999996 C 127.029 13.658999999999995 126.366 13.326999999999996 125.48899999999999 13.326999999999996 z M 138.487 23.207 C 136.70499999999998 23.207 135.311 22.689 134.303 21.654 C 133.302 20.611 132.801 19.178 132.801 17.356 C 132.801 15.485000000000001 133.267 14.014000000000001 134.19899999999998 12.944000000000003 C 135.13099999999997 11.874000000000002 136.41199999999998 11.339000000000002 138.041 11.339000000000002 C 139.553 11.339000000000002 140.748 11.798000000000002 141.625 12.716000000000003 C 142.502 13.634000000000002 142.94 14.898000000000003 142.94 16.506000000000004 L 142.94 17.822000000000003 L 135.307 17.822000000000003 C 135.34199999999998 18.933000000000003 135.642 19.790000000000003 136.208 20.390000000000004 C 136.774 20.984000000000005 137.572 21.280000000000005 138.601 21.280000000000005 C 139.277 21.280000000000005 139.906 21.219000000000005 140.486 21.094000000000005 C 141.13351106303747 20.942221252346354 141.7645424931813 20.72718824908079 142.36999999999998 20.452000000000005 L 142.36999999999998 22.430000000000007 C 141.79741826238327 22.706353616418383 141.19183675088678 22.908326140507945 140.56799999999998 23.031000000000006 C 139.96099999999998 23.148000000000007 139.267 23.207000000000004 138.487 23.207000000000004 z M 138.041 13.182 C 137.268 13.182 136.647 13.427 136.177 13.917 C 135.715 14.407 135.438 15.122 135.349 16.061 L 140.548 16.061 C 140.534 15.115 140.306 14.401 139.864 13.917 C 139.422 13.427 138.815 13.182 138.041 13.182 z M 155.782 23 L 153.33800000000002 23 L 153.33800000000002 15.958 C 153.33800000000002 15.074 153.15800000000002 14.415000000000001 152.79900000000004 13.979 C 152.44700000000003 13.545 151.88400000000004 13.327 151.11100000000005 13.327 C 150.08200000000005 13.327 149.33000000000004 13.631 148.85400000000004 14.238 C 148.37700000000004 14.846 148.13900000000004 15.863999999999999 148.13900000000004 17.294 L 148.13900000000004 23 L 145.70500000000004 23 L 145.70500000000004 11.546 L 147.61100000000005 11.546 L 147.95300000000006 13.048 L 148.07700000000006 13.048 C 148.42200000000005 12.502 148.91200000000006 12.081 149.54700000000005 11.784 C 150.18300000000005 11.487 150.88700000000006 11.339 151.66000000000005 11.339 C 154.40800000000004 11.339 155.78200000000004 12.737 155.78200000000004 15.533000000000001 L 155.78200000000004 23 z M 166.863 19.738 C 166.863 20.855999999999998 166.456 21.716 165.641 22.317 C 164.827 22.91 163.66 23.207 162.141 23.207 C 160.61499999999998 23.207 159.38899999999998 22.976 158.464 22.513 L 158.464 20.411 C 159.811 21.032 161.064 21.343 162.224 21.343 C 163.72199999999998 21.343 164.471 20.891 164.471 19.986 C 164.471 19.696 164.388 19.455000000000002 164.222 19.261 C 164.05700000000002 19.067999999999998 163.78400000000002 18.868 163.404 18.660999999999998 C 163.025 18.453 162.496 18.218999999999998 161.82 17.956 C 160.501 17.445999999999998 159.607 16.935 159.137 16.424 C 158.675 15.913 158.444 15.25 158.444 14.434999999999999 C 158.444 13.454999999999998 158.837 12.694999999999999 159.624 12.156999999999998 C 160.418 11.610999999999999 161.495 11.338999999999999 162.855 11.338999999999999 C 164.202 11.338999999999999 165.476 11.610999999999999 166.677 12.156999999999998 L 165.89 13.989999999999998 C 164.654 13.479 163.61499999999998 13.222999999999999 162.773 13.222999999999999 C 161.488 13.222999999999999 160.846 13.588999999999999 160.846 14.321 C 160.846 14.681 161.012 14.984 161.34300000000002 15.233 C 161.68200000000002 15.481 162.41400000000002 15.823 163.53900000000002 16.258 C 164.485 16.624 165.17200000000003 16.958 165.60000000000002 17.262999999999998 C 166.02800000000002 17.566 166.34600000000003 17.918 166.55300000000003 18.319 C 166.76000000000002 18.712 166.86300000000003 19.185 166.86300000000003 19.738 z M 174.506 23.208 C 172.725 23.208 171.33 22.689 170.322 21.654 C 169.321 20.611 168.821 19.178 168.821 17.356 C 168.821 15.485000000000001 169.287 14.014000000000001 170.219 12.944000000000003 C 171.15099999999998 11.874000000000002 172.432 11.339000000000002 174.061 11.339000000000002 C 175.573 11.339000000000002 176.768 11.798000000000002 177.644 12.716000000000003 C 178.52100000000002 13.634000000000002 178.96 14.898000000000003 178.96 16.506000000000004 L 178.96 17.822000000000003 L 171.327 17.822000000000003 C 171.362 18.933000000000003 171.662 19.790000000000003 172.228 20.390000000000004 C 172.794 20.984000000000005 173.592 21.280000000000005 174.62 21.280000000000005 C 175.297 21.280000000000005 175.925 21.219000000000005 176.505 21.094000000000005 C 177.15283972741454 20.942240523657986 177.78420479730937 20.72720796404393 178.39 20.452000000000005 L 178.39 22.430000000000007 C 177.81735644008222 22.706201370787845 177.21179480845007 22.90816726457859 176.588 23.031000000000006 C 175.98 23.148000000000007 175.287 23.207000000000004 174.506 23.207000000000004 z M 174.061 13.181999999999999 C 173.288 13.181999999999999 172.666 13.426999999999998 172.197 13.916999999999998 C 171.734 14.406999999999998 171.458 15.121999999999998 171.368 16.061 L 176.567 16.061 C 176.554 15.115 176.326 14.401 175.88400000000001 13.917 C 175.442 13.427 174.834 13.182 174.061 13.182 z M 189.42000000000002 19.738 C 189.42000000000002 20.855999999999998 189.01200000000003 21.716 188.198 22.317 C 187.383 22.91 186.216 23.207 184.697 23.207 C 183.171 23.207 181.946 22.976 181.02100000000002 22.513 L 181.02100000000002 20.411 C 182.36700000000002 21.032 183.62 21.343 184.78 21.343 C 186.278 21.343 187.027 20.891 187.027 19.986 C 187.027 19.696 186.945 19.455000000000002 186.779 19.261 C 186.613 19.067999999999998 186.34 18.868 185.96099999999998 18.660999999999998 C 185.581 18.453 185.053 18.218999999999998 184.37599999999998 17.956 C 183.057 17.445999999999998 182.16299999999998 16.935 181.694 16.424 C 181.231 15.913 181 15.25 181 14.434999999999999 C 181 13.454999999999998 181.393 12.694999999999999 182.181 12.156999999999998 C 182.97500000000002 11.610999999999999 184.05200000000002 11.338999999999999 185.412 11.338999999999999 C 186.758 11.338999999999999 188.032 11.610999999999999 189.233 12.156999999999998 L 188.446 13.989999999999998 C 187.21 13.479 186.171 13.222999999999999 185.329 13.222999999999999 C 184.04500000000002 13.222999999999999 183.40300000000002 13.588999999999999 183.40300000000002 14.321 C 183.40300000000002 14.681 183.568 14.984 183.90000000000003 15.233 C 184.23800000000003 15.481 184.97000000000003 15.823 186.09500000000003 16.258 C 187.04100000000003 16.624 187.72800000000004 16.958 188.15600000000003 17.262999999999998 C 188.58400000000003 17.566 188.90200000000004 17.918 189.10900000000004 18.319 C 189.31600000000003 18.712 189.42000000000004 19.185 189.42000000000004 19.738 z" stroke-linecap="round" />
</g>
		<g transform="matrix(1 0 0 1 -245.2 -3.5)"  >
<path style="stroke: none; stroke-width: 1; stroke-dasharray: none; stroke-linecap: butt; stroke-dashoffset: 0; stroke-linejoin: miter; stroke-miterlimit: 4; fill: rgb(255,255,255); fill-opacity: 0.31; fill-rule: nonzero; opacity: 1;" vector-effect="non-scaling-stroke"  transform=" translate(-48.3, -48)" d="M 50 27.6 C 57.12 27.6 59.76 31 60 36 L 68.84 36 C 68.56 29.12 64.36 22.8 56 20.759999999999998 L 56 12 L 44 12 L 44 20.64 C 42.44 20.96 41 21.48 39.6 22.080000000000002 L 45.64 28.12 C 46.92 27.8 48.4 27.6 50 27.6 z M 21.88 15.68 L 16.24 21.32 L 30 35.08 C 30 43.4 36.24 47.96 45.64 50.72 L 59.68 64.75999999999999 C 58.32 66.71999999999998 55.48 68.39999999999999 50 68.39999999999999 C 41.76 68.39999999999999 38.519999999999996 64.71999999999998 38.08 59.99999999999999 L 29.279999999999998 59.99999999999999 C 29.759999999999998 68.75999999999999 36.32 73.67999999999999 44 75.32 L 44 84 L 56 84 L 56 75.4 C 59.84 74.68 63.32 73.2 65.84 70.92 L 74.72 79.8 L 80.36 74.16 L 21.880000000000003 15.68 z" stroke-linecap="round" />
</g>
</g>
</g>
<g transform="matrix(0 0 0 0 853.74 187.33)"  >
<g style=""   >
</g>
</g>
<g transform="matrix(0 0 0 0 853.74 187.33)"  >
<g style=""   >
</g>
</g>
<g transform="matrix(0 0 0 0 853.74 187.33)"  >
<g style=""   >
</g>
</g>
<g transform="matrix(0 0 0 0 853.74 187.33)"  >
<g style=""   >
</g>
</g>
<g transform="matrix(0.49 0 0 0.53 449.46 59.88)" style="" id="53194a0d-de14-46bb-b70f-65ece88bd5ae"  >
		<text xml:space="preserve" font-family="Raleway" font-size="105" font-style="normal" font-weight="900" style="stroke: none; stroke-width: 1; stroke-dasharray: none; stroke-linecap: butt; stroke-dashoffset: 0; stroke-linejoin: miter; stroke-miterlimit: 4; fill: rgb(255,255,255); fill-rule: nonzero; opacity: 1; white-space: pre;" ><tspan x="-198.4" y="32.98" >Tracker</tspan></text>
</g>
<g transform="matrix(0.52 0 0 0.29 212.08 22.35)" style="" id="19190d17-70e7-4b51-ab80-6262e6d8210e"  >
		<text xml:space="preserve" font-family="Raleway" font-size="105" font-style="normal" font-weight="700" style="stroke: none; stroke-width: 1; stroke-dasharray: none; stroke-linecap: butt; stroke-dashoffset: 0; stroke-linejoin: miter; stroke-miterlimit: 4; fill: rgb(255,230,0); fill-rule: nonzero; opacity: 1; white-space: pre;" ><tspan x="-219.3" y="32.98" >Mezania</tspan></text>
</g>
</svg>