<svg width="703" height="549" viewBox="0 0 703 549" fill="none" xmlns="http://www.w3.org/2000/svg">
<g clip-path="url(#clip0_43_536)">
<mask id="mask0_43_536" style="mask-type:luminance" maskUnits="userSpaceOnUse" x="-97" y="0" width="800" height="550">
<path d="M703 0H-97V550H703V0Z" fill="white"/>
</mask>
<g mask="url(#mask0_43_536)">
<path d="M576.114 244.937C576.114 244.937 574.096 266.704 569.052 278.052C564.008 289.411 552.9 298.867 551.891 303.601C550.882 308.335 548.865 349.966 548.865 349.966" stroke="#363636" stroke-linecap="round" stroke-linejoin="round"/>
<path d="M548.865 362.254V380.238" stroke="#363636" stroke-linecap="round" stroke-linejoin="round"/>
<path d="M66.3765 263.664C66.3765 263.664 68.394 296.779 91.6077 312.86" stroke="#363636" stroke-linecap="round" stroke-linejoin="round"/>
<path d="M65.3677 254.208C65.3677 254.208 65.3677 240.957 68.394 231.501" stroke="#363636" stroke-linecap="round" stroke-linejoin="round"/>
<path d="M693.017 503.774C672.284 507.94 672.284 534.301 657.489 531.528C642.682 528.755 675.253 506.547 682.662 477.401C690.06 448.254 660.457 428.831 651.575 448.254C642.693 467.678 647.134 514.866 641.209 512.093C635.284 509.32 645.65 414.942 621.961 395.519C598.272 376.084 577.54 398.292 584.949 438.543C592.347 478.793 624.918 514.867 613.079 517.651C601.24 520.424 587.906 476.02 570.142 457.978C552.378 439.935 537.571 453.812 549.41 480.185C561.249 506.559 616.036 548.19 616.036 548.19C616.036 548.19 604.348 551.323 582.653 534.371C560.959 517.419 550.767 517.732 546.488 524.508C542.209 531.285 551.416 538.374 560.298 541.147" stroke="#363636" stroke-linecap="round" stroke-linejoin="round"/>
<path d="M62.3413 401.054C62.3413 401.054 90.5989 405.788 88.5813 417.135C86.5637 428.495 51.2331 427.543 22.9756 442.685C-5.28194 457.827 20.958 476.751 14.9053 494.724C8.85263 512.697 -60.7998 537.306 -60.7998 537.306" stroke="#363636" stroke-linecap="round" stroke-linejoin="round"/>
<path d="M278.975 185.948C287.509 183.581 296.762 180.669 304.136 175.923C318.897 166.443 316.16 162.046 307.881 148.726C284.32 110.842 366.507 100.527 389.697 98.3809" stroke="#363636" stroke-linecap="round" stroke-linejoin="round"/>
<path d="M639.273 30.4576C641.406 26.0253 644.189 21.1985 648.978 18.4602C654.126 15.5131 659.576 14.3528 664.516 12.7864" stroke="#363636" stroke-linecap="round" stroke-linejoin="round"/>
<path d="M502.727 83.2391C502.727 83.2391 585.761 89.7251 613.45 76.7531C625.787 70.9749 630.101 61.3212 632.942 51.3544" stroke="#363636" stroke-linecap="round" stroke-linejoin="round"/>
<path d="M476.557 100.864C476.557 100.864 468.568 109.845 468.568 118.083C468.568 126.321 471.757 137.541 473.357 148.772C474.957 160.004 464.568 180.216 464.568 180.216C464.568 180.216 478.54 170.238 481.334 165.248C484.129 160.259 486.923 151.023 486.923 151.023C486.923 151.023 494.112 145.779 494.912 139.792C495.712 133.805 497.312 130.057 497.312 122.573C497.312 115.089 491.724 97.1278 476.545 100.864H476.557Z" fill="white"/>
<path d="M388.723 186.957L428.646 193.699L437.435 184.718L431.046 181.724C431.046 181.724 394.312 184.718 388.723 186.969V186.957Z" fill="white"/>
<path d="M290.5 458.674V564.214H307.267V445.191C307.267 445.191 300.878 453.429 290.5 458.662V458.674Z" fill="white"/>
<path d="M280.111 325.426C280.111 325.426 288.1 353.122 284.9 365.096C281.711 377.071 276.911 387.548 272.922 392.038C268.933 396.529 249.766 413.747 245.766 413.747C245.766 413.747 268.922 411.496 283.3 400.276C297.678 389.045 309.656 371.084 311.244 355.362C312.844 339.64 304.855 321.678 304.855 321.678H286.488L280.099 325.426H280.111Z" fill="white"/>
<path d="M227.411 181.713L199.466 188.454C199.466 188.454 252.967 200.428 276.922 222.891L303.278 218.401C303.278 218.401 285.711 194.453 227.411 181.724V181.713Z" fill="white"/>
<path d="M478.157 179.462C478.157 179.462 481.346 183.21 482.946 190.693C484.546 198.177 484.546 201.171 484.546 201.171C484.546 201.171 492.535 198.92 509.302 204.164C526.069 209.409 543.635 210.906 533.258 213.145C522.88 215.384 506.102 210.151 519.68 216.139C533.258 222.126 542.035 216.893 545.236 225.119C548.424 233.357 549.224 261.796 543.635 263.293C538.047 264.789 522.08 257.306 522.08 264.047C522.08 270.788 534.858 273.028 533.258 282.762C531.658 292.497 530.069 298.484 523.68 305.968C517.291 313.452 508.502 305.214 501.324 303.717C494.135 302.22 504.513 309.704 506.113 320.936C507.713 332.167 496.536 338.897 496.536 338.897C496.536 338.897 484.558 320.182 486.158 328.42C487.758 336.658 492.547 344.884 491.747 350.129C490.947 355.373 477.369 351.625 474.98 343.387C472.58 335.149 459.906 320.518 458.213 327.666C456.521 334.824 466.203 347.124 467.003 356.116C467.803 365.096 459.014 373.334 459.014 373.334L448.636 372.58H442.247C442.247 372.58 440.647 382.315 431.869 389.799C423.08 397.283 418.291 398.037 427.88 402.527C437.458 407.018 461.425 408.514 482.981 408.514C504.536 408.514 526.103 393.547 530.092 389.056C534.081 384.566 530.892 371.838 530.892 362.114C530.892 352.391 540.47 306.722 540.47 306.722C540.47 306.722 562.025 270.788 563.626 258.814C565.226 246.84 558.906 222.764 556.436 219.144C553.967 215.524 548.447 207.17 538.07 200.428C527.692 193.687 486.158 180.97 486.158 180.97C486.158 180.97 489.347 178.719 486.158 174.983C482.969 171.235 479.769 170.493 479.769 170.493L478.169 179.473L478.157 179.462Z" fill="white"/>
<g style="mix-blend-mode:multiply">
<path d="M395.02 184.59C395.02 184.59 378.531 185.275 372.119 195.056C365.707 204.837 361.695 233.404 360.883 242.431C360.083 251.458 344.836 273.26 348.847 280.024" stroke="#363636" stroke-linecap="round" stroke-linejoin="round"/>
<path d="M336.812 338.34C336.812 338.34 336.812 353.145 341.751 358.703C346.691 364.261 349.648 366.106 361.498 366.106C373.348 366.106 372.363 360.548 372.363 360.548" stroke="#363636" stroke-linecap="round" stroke-linejoin="round"/>
<path d="M378.16 373.509C378.16 373.509 373.545 421.08 374.705 437.29C375.853 453.51 381.627 563.68 381.627 563.68H533.861C533.861 563.68 536.168 482.692 536.168 448.103C536.168 413.515 528.098 382.153 528.098 382.153C528.098 382.153 440.45 402.69 378.172 373.509H378.16Z" fill="#363636"/>
<path d="M480.418 182.27C480.418 182.27 499.237 185.403 511.401 190.287C523.564 195.172 551.346 203.317 553.955 215.524C556.564 227.73 551.346 252.154 546.14 279.026C540.934 305.887 533.2 326.528 532.249 341.705C530.162 374.773 533.721 382.872 527.912 388.917C520.549 396.575 488.836 409.269 449.749 406.008C410.673 402.748 378.879 388.105 374.542 371.002C370.206 353.911 379.749 319.021 374.542 270.985C369.336 222.961 379.401 187.015 395.043 184.567C410.673 182.131 452.358 180.495 461.043 180.495C469.727 180.495 480.441 182.247 480.441 182.247L480.418 182.27Z" fill="white" stroke="#363636" stroke-linecap="round" stroke-linejoin="round"/>
<path d="M432.182 222.369L439.209 241.189C439.209 241.189 420.135 324.95 414.105 341.891C410.174 352.96 407.519 368.044 406.151 377.175C405.386 382.28 406.51 387.467 409.316 391.899L414.94 400.787C416.853 403.815 421.144 404.639 424.181 402.551L433.353 396.239C438.328 392.816 441.377 387.455 441.655 381.677L448.242 244.009L464.301 227.068L448.242 203.538L432.182 222.358V222.369Z" fill="#C2B7BC"/>
<path d="M438.606 180.599C438.606 180.599 435.429 184.312 430.675 192.492C425.921 200.672 419.938 226.396 424.703 228.623C429.457 230.851 449.285 218.215 449.285 218.215C449.285 218.215 453.251 236.049 462.77 234.564C472.29 233.079 488.141 200.37 487.352 186.25C486.564 172.129 481.798 169.158 473.867 167.662C465.936 166.177 438.606 180.587 438.606 180.587V180.599Z" fill="white" stroke="#363636" stroke-linecap="round" stroke-linejoin="round"/>
<path d="M438.177 184.022C438.177 184.022 442.931 192.202 443.731 201.113C444.322 207.738 446.908 214.491 450.074 214.491C453.239 214.491 478.621 182.525 478.621 176.584C478.621 170.644 477.033 156.511 477.033 156.511C477.033 156.511 446.897 181.782 438.177 184.01V184.022Z" fill="white" stroke="#363636" stroke-linecap="round" stroke-linejoin="round"/>
<g style="mix-blend-mode:multiply">
<path d="M474.725 174.426C474.725 174.426 465.437 189.231 457.077 194.453C448.717 199.674 443.14 196.193 443.14 196.193L436.936 183.65C436.936 183.65 466.365 179.648 474.725 174.415V174.426Z" fill="#C2B7BC"/>
</g>
<path d="M430.779 86.0354C426.095 88.472 420.842 91.3495 419.033 96.3968C414.279 109.647 415.218 133.828 417.711 150.199C419.08 159.215 422.523 177.234 436.936 183.662C455.883 192.121 476.221 175.285 484.164 160.247C493.95 141.718 493.208 117.015 486.772 97.6731C484.442 90.665 479.978 86.0818 472.557 83.7844C459.338 79.6886 443.221 79.561 430.791 86.0354H430.779Z" fill="white" stroke="#363636" stroke-linecap="round" stroke-linejoin="round"/>
<path d="M434.177 127.667C434.177 127.667 433.492 145.686 433.492 152.125C433.492 158.565 436.24 159.853 440.357 159.853C444.473 159.853 450.653 152.125 450.653 152.125" fill="white"/>
<path d="M434.177 127.667C434.177 127.667 433.492 145.686 433.492 152.125C433.492 158.565 436.24 159.853 440.357 159.853C444.473 159.853 450.653 152.125 450.653 152.125" stroke="#363636" stroke-linecap="round" stroke-linejoin="round"/>
<path d="M450.039 121.54C450.039 121.54 457.367 120.577 464.046 124.766L450.039 121.54Z" fill="white"/>
<path d="M450.039 121.54C450.039 121.54 457.367 120.577 464.046 124.766" stroke="#363636" stroke-linecap="round" stroke-linejoin="round"/>
<path d="M432.762 116.597C432.762 116.597 425.805 115.449 421.909 119.951L432.762 116.597Z" fill="white"/>
<path d="M432.762 116.597C432.762 116.597 425.805 115.449 421.909 119.951" stroke="#363636" stroke-linecap="round" stroke-linejoin="round"/>
<path d="M449.842 136.752C449.842 136.752 453.715 140.024 463.71 137.958L449.842 136.752Z" fill="white"/>
<path d="M449.842 136.752C449.842 136.752 453.715 140.024 463.71 137.958" stroke="#363636" stroke-linecap="round" stroke-linejoin="round"/>
<path d="M420.448 134.106C420.448 134.106 425.26 139.258 430.744 136.032L420.448 134.106Z" fill="white"/>
<path d="M420.448 134.106C420.448 134.106 425.26 139.258 430.744 136.032" stroke="#363636" stroke-linecap="round" stroke-linejoin="round"/>
<path d="M486.761 97.6731C486.761 97.6731 488.431 71.671 470.574 65.8812" stroke="#363636" stroke-miterlimit="10"/>
<path d="M491.167 98.0676C491.167 98.0676 476.743 69.1068 451.349 66.5309" stroke="#363636" stroke-miterlimit="10" stroke-linecap="round"/>
<path d="M498.727 108.359C496.663 99.3439 491.179 98.056 491.179 98.056C491.179 98.056 486.703 88.6345 479.131 81.3479C479.259 81.3479 479.375 81.3246 479.502 81.3246C479.502 81.3246 478.215 79.9671 475.432 78.1919C473.705 76.8923 471.849 75.7669 469.89 74.8966C468.591 74.3165 467.177 73.8756 465.669 73.5507C459.674 71.4506 451.581 69.745 441.053 69.745C413.584 69.745 398.487 82.6126 397.107 94.2039C395.738 105.784 412.899 94.2038 410.835 96.1299C408.771 98.056 395.727 105.784 404.655 111.573C410.209 115.17 416.517 113.79 421.955 110.784C424.877 109.172 434.107 104.472 435.765 101.897C434.536 103.799 432.345 106.839 429.365 109.636C424.553 114.138 420.436 115.426 420.436 115.426C420.436 115.426 428.68 116.064 436.913 110.274C445.157 104.484 456.822 98.6942 467.814 98.6942C478.807 98.6942 476.743 107.71 476.743 107.71C476.743 107.71 469.194 116.075 473.995 120.577C478.795 125.079 482.239 125.079 482.923 127.017C483.607 128.943 482.239 134.095 484.291 134.095C486.343 134.095 485.659 124.441 489.103 124.441C492.547 124.441 496.652 130.231 496.652 130.231C496.652 130.231 500.768 117.363 498.716 108.348L498.727 108.359Z" fill="#363636"/>
<path d="M482.934 136.682C482.934 136.682 485.683 122.526 493.231 122.526C500.779 122.526 498.043 131.542 495.295 140.546C492.547 149.561 485.683 150.838 485.683 150.838" fill="white"/>
<path d="M482.934 136.682C482.934 136.682 485.683 122.526 493.231 122.526C500.779 122.526 498.043 131.542 495.295 140.546C492.547 149.561 485.683 150.838 485.683 150.838" stroke="#363636" stroke-linecap="round" stroke-linejoin="round"/>
<path d="M527.483 220.687C527.483 220.687 498.692 234.46 494.066 251.319C489.439 268.178 473.194 302.278 466.736 307.604C466.736 307.604 457.552 314.844 467.095 319.729C476.65 324.614 485.335 343.341 488.802 352.287C492.28 361.244 505.986 357.253 506.426 350.755C506.867 344.258 513.604 334.871 519.946 331.17C526.289 327.468 552.459 288.251 560.947 265.915C569.435 243.579 557.329 216.754 549.537 216.289" fill="white"/>
<path d="M527.483 220.687C527.483 220.687 498.692 234.46 494.066 251.319C489.439 268.178 473.194 302.278 466.736 307.604C466.736 307.604 457.552 314.844 467.095 319.729C476.65 324.614 485.335 343.341 488.802 352.287C492.28 361.244 505.986 357.253 506.426 350.755C506.867 344.258 513.604 334.871 519.946 331.17C526.289 327.468 552.459 288.251 560.947 265.915C569.435 243.579 557.329 216.754 549.537 216.289" stroke="#363636" stroke-linecap="round" stroke-linejoin="round"/>
<path d="M334.759 232.974L347.282 298.101C347.734 300.666 350.308 302.418 353.057 302.023C355.967 301.605 357.892 298.972 357.254 296.28L344.349 231.222C343.78 228.844 341.554 227.985 338.992 228.38C336.325 228.797 334.319 230.468 334.759 232.963V232.974Z" fill="white" stroke="#363636" stroke-linecap="round" stroke-linejoin="round"/>
<path d="M352.013 264.244C352.013 264.244 337.82 258.199 334.806 259C331.791 259.812 330.933 268.27 330.933 268.27C330.933 268.27 331.362 271.902 332.649 276.74C333.936 281.579 338.238 288.842 342.969 291.256C347.7 293.681 354.587 293.681 357.161 291.256C359.735 288.831 358.019 279.56 358.019 279.56" fill="white"/>
<path d="M352.013 264.244C352.013 264.244 337.82 258.199 334.806 259C331.791 259.812 330.933 268.27 330.933 268.27C330.933 268.27 331.362 271.902 332.649 276.74C333.936 281.579 338.238 288.842 342.969 291.256C347.7 293.681 354.587 293.681 357.161 291.256C359.735 288.831 358.019 279.56 358.019 279.56" stroke="#363636" stroke-linecap="round" stroke-linejoin="round"/>
<path d="M358.901 255.368C358.901 255.368 351.746 255.217 351.746 260.485C351.746 265.753 351.12 275.116 352.999 276.88C354.877 278.632 361.741 278.632 362.994 272.784C363.747 269.257 364.142 264.511 364.35 261.297C364.524 258.489 362.507 255.832 359.538 255.414C359.318 255.38 359.109 255.368 358.901 255.368Z" fill="white" stroke="#363636" stroke-linecap="round" stroke-linejoin="round"/>
<path d="M315.627 205.847L322.26 241.027C323.929 250.402 333.321 256.795 343.351 255.368C353.984 253.86 361.022 244.229 358.692 234.39L350.668 199.465C348.604 190.786 340.464 187.63 331.107 189.092C321.378 190.612 314.015 196.727 315.639 205.847H315.627Z" fill="white" stroke="#363636" stroke-linecap="round" stroke-linejoin="round"/>
<g style="mix-blend-mode:multiply">
<path d="M333.959 188.802C333.02 188.849 332.069 188.941 331.095 189.092C321.367 190.612 314.004 196.727 315.627 205.847L322.26 241.027C323.929 250.402 333.321 256.795 343.351 255.368C344.882 255.147 346.331 254.753 347.688 254.219L333.959 188.814V188.802Z" fill="#C2B7BC"/>
</g>
<path d="M349.798 197.203C351.224 203.515 344.615 210.163 335.049 212.066C325.472 213.969 316.566 210.384 315.14 204.083C313.714 197.771 320.323 191.123 329.889 189.22C339.467 187.317 348.372 190.902 349.798 197.203Z" fill="white" stroke="#363636" stroke-linecap="round" stroke-linejoin="round"/>
<path d="M350.853 269.697C352.941 275.302 350.332 281.242 345.033 282.971C339.734 284.7 333.762 281.567 331.675 275.963C329.588 270.359 332.197 264.418 337.496 262.689C342.795 260.961 348.766 264.093 350.853 269.697Z" fill="#363636"/>
<path d="M328.602 272.355L283.59 305.4C283.59 305.4 279.497 309.751 284.355 309.727C289.225 309.704 337.403 280.894 337.403 280.894C337.403 280.894 344.383 271.728 328.591 272.343L328.602 272.355Z" fill="#363636"/>
<path d="M457.518 353.54C458.828 347.089 446.989 329.255 439.36 326.354C439.36 326.354 425.932 319.021 414.778 316.724C403.623 314.427 382.879 312.361 366.043 304.019L349.207 295.665C349.207 295.665 346.841 279.212 345.45 274.234C344.047 269.257 340.8 265.799 333.008 265.335C325.205 264.871 315.894 261.042 313.134 263.328C310.363 265.613 311.604 273.028 311.604 273.028L300.461 279.27C295.938 279.003 290.292 278.643 288.436 278.643C285.445 278.643 281.955 283.783 286.442 285.187C290.929 286.591 305.389 287.52 305.389 287.52C312.508 295.375 319.129 304.251 326.689 311.665C330.794 315.691 337.867 316.283 341.508 319.683C341.508 319.683 385.616 353.227 399.681 360.27C423.984 372.429 450.908 374.367 456.335 371.42C461.762 368.484 456.242 359.991 457.553 353.552L457.518 353.54Z" fill="white" stroke="#363636" stroke-linecap="round" stroke-linejoin="round"/>
<g style="mix-blend-mode:multiply">
<path d="M435.046 326.482C435.046 326.482 441.957 340.278 443.406 349.827C444.856 359.365 435.406 365.503 427.405 364.818C419.404 364.133 390.323 353.911 390.323 353.911C390.323 353.911 417.433 370.492 436.855 370.956C456.289 371.408 460.846 374.367 463.756 368.229C466.666 362.091 465.205 341.647 456.486 334.836C447.755 328.025 438.304 320.193 435.035 326.494L435.046 326.482Z" fill="#C2B7BC"/>
</g>
<path d="M498.948 352.763C498.669 351.44 498.461 350.105 498.287 348.771C497.602 343.457 494.715 329.87 482.842 318.963C467.733 305.075 456.057 306.107 452.393 307.616C448.717 309.124 441.087 316.457 441.087 316.457C441.087 316.457 428.414 319.161 435.046 326.482C441.679 333.803 452.532 344.838 453.599 355.292C454.665 365.746 453.854 377.813 466.585 374.239C479.317 370.677 481.276 368.194 492.106 366.245C500.524 364.737 499.724 356.406 498.936 352.763H498.948Z" fill="white" stroke="#363636" stroke-linecap="round" stroke-linejoin="round"/>
<path d="M307.708 275.534C307.708 275.534 321.9 275.534 323.628 277.147C325.344 278.759 325.773 279.966 325.773 279.966" stroke="#363636" stroke-linecap="round" stroke-linejoin="round"/>
<path d="M311.58 273.016C311.58 273.016 317.169 271.902 324.057 271.902C330.944 271.902 334.377 273.921 334.377 273.921" stroke="#363636" stroke-linecap="round" stroke-linejoin="round"/>
<path d="M447.523 319.88C447.523 319.88 470.783 328.907 471.594 341.682" stroke="#363636" stroke-linecap="round" stroke-linejoin="round"/>
<path d="M474.006 349.2C474.006 349.2 474.806 356.719 474.806 360.478" stroke="#363636" stroke-linecap="round" stroke-linejoin="round"/>
<path d="M440.763 166.501C440.763 166.501 450.491 169.1 456.741 162.591L440.763 166.501Z" fill="white"/>
<path d="M440.763 166.501C440.763 166.501 450.491 169.1 456.741 162.591" stroke="#363636" stroke-linecap="round" stroke-linejoin="round"/>
<path d="M426.605 414.594C426.605 414.594 430.06 455.68 433.527 459.996C436.983 464.324 445.065 469.731 445.065 469.731" stroke="white" stroke-linecap="round" stroke-linejoin="round"/>
<path d="M466.968 453.51C466.968 453.51 448.52 476.217 448.52 481.613C448.52 487.008 449.668 562.601 449.668 562.601" stroke="white" stroke-miterlimit="10" stroke-linecap="round"/>
<path d="M525.79 398.374C525.79 398.374 510.798 417.832 476.198 417.832L473.96 409.118" stroke="white" stroke-linecap="round" stroke-linejoin="round"/>
<path d="M307.499 438.728H98.472V564.562H307.499V438.728Z" fill="white" stroke="#363636" stroke-miterlimit="10"/>
<path d="M126.347 564.562V478.782C126.347 475.173 123.228 472.249 119.378 472.249C115.529 472.249 112.41 475.173 112.41 478.782V564.562H126.347Z" fill="#51D289" stroke="#363636" stroke-miterlimit="10"/>
<path d="M282.419 564.562V487.495C282.419 483.887 279.299 480.963 275.45 480.963C271.6 480.963 268.481 483.887 268.481 487.495V564.562H282.419Z" fill="#51D289" stroke="#363636" stroke-miterlimit="10"/>
<path d="M157.005 564.562V489.236C157.005 485.627 153.886 482.703 150.036 482.703C146.186 482.703 143.067 485.627 143.067 489.236V564.562H157.005Z" fill="#51D289" stroke="#363636" stroke-miterlimit="10"/>
<path d="M197.924 564.562V495.791C197.924 490.965 193.75 487.066 188.613 487.066C183.465 487.066 179.302 490.976 179.302 495.791V564.562H197.924Z" fill="#51D289" stroke="#363636" stroke-miterlimit="10"/>
<path d="M247.157 564.562V494.921C247.157 490.094 242.983 486.196 237.846 486.196C232.698 486.196 228.536 490.106 228.536 494.921V564.562H247.157Z" fill="#51D289" stroke="#363636" stroke-miterlimit="10"/>
<path d="M307.499 438.728H98.472V564.562H307.499V438.728Z" stroke="#363636" stroke-miterlimit="10"/>
<path d="M202.991 475.742C260.709 475.742 307.499 459.17 307.499 438.728C307.499 418.287 260.709 401.715 202.991 401.715C145.273 401.715 98.4836 418.287 98.4836 438.728C98.4836 459.17 145.273 475.742 202.991 475.742Z" fill="white" stroke="#363636" stroke-linecap="round" stroke-linejoin="round"/>
<path d="M202.991 475.742C260.709 475.742 307.499 459.17 307.499 438.728C307.499 418.287 260.709 401.715 202.991 401.715C145.273 401.715 98.4836 418.287 98.4836 438.728C98.4836 459.17 145.273 475.742 202.991 475.742Z" stroke="#363636" stroke-linecap="round" stroke-linejoin="round"/>
<g style="mix-blend-mode:multiply">
<path d="M196.486 464.22C238.861 464.22 273.212 453.197 273.212 439.599C273.212 426.001 238.861 414.977 196.486 414.977C154.112 414.977 119.761 426.001 119.761 439.599C119.761 453.197 154.112 464.22 196.486 464.22Z" fill="#C2B7BC"/>
</g>
<path d="M311.314 345.801C311.314 335.706 309.366 327.085 305.702 319.567C305.157 319.184 303.29 317.896 300.066 315.656C296.182 312.965 292.309 313.301 292.309 313.301C292.309 313.301 289.723 308.277 287.138 305.666C284.552 303.067 279.381 304.529 279.381 304.529C279.381 304.529 277.444 301.965 274.847 299.366C272.261 296.767 263.205 296.744 263.205 296.744C263.205 296.744 259.97 288.633 256.735 284.166C255.297 282.182 254.52 281.219 254.08 280.743C242.125 275.859 235.412 275.128 219.99 270.997C185.564 261.703 177.134 257.503 177.134 245.981C177.134 237.418 185.216 231.721 201.727 232.858C202.11 232.882 202.493 232.928 202.887 232.963L244.444 266.82L270.591 260.334L304.67 217.566C282.894 199.604 256.897 187.932 225.277 182.455V161.709L186.63 159.041L160.483 165.527L166.745 177.826L167.313 182.061C130.776 189.359 108.293 213.087 108.293 247.814C108.293 294.899 148.691 310.528 201.032 325.333C234.403 334.883 242.832 337.11 242.832 347.971C242.832 357.845 233 363.101 214.378 361.813C185.923 359.852 159.219 348.458 134.638 328.652L108.49 335.138L89.8568 376.015L119.077 388.987L121.79 387.095C141.258 398.896 163.278 407.064 186.619 411.601V433.333L196.092 433.983L199.118 442.476L225.266 435.99L225.764 415.232C278.163 414.757 311.337 389.753 311.337 345.766L311.314 345.801Z" fill="white" stroke="#363636" stroke-linecap="round" stroke-linejoin="round"/>
<g style="mix-blend-mode:multiply">
<path d="M304.635 217.577L268.898 226.454L244.421 266.82L270.568 260.334L304.635 217.577Z" fill="#C2B7BC"/>
</g>
<g style="mix-blend-mode:multiply">
<path d="M199.107 442.511L225.242 436.025V415.267L197.24 418.4L199.107 442.511Z" fill="#C2B7BC"/>
</g>
<g style="mix-blend-mode:multiply">
<path d="M191.373 289.376C194.156 288.506 222.031 287.636 222.031 287.636L239.771 285.942L244.328 278.922L250.416 279.328C240.595 275.685 233.753 274.698 219.978 270.997C185.552 261.703 177.122 257.503 177.122 245.981C177.122 239.565 181.668 234.75 190.898 233.23C161.863 222.926 128.573 242.303 138.418 264.117C148.633 286.754 188.578 290.246 191.373 289.376Z" fill="#C2B7BC"/>
</g>
<g style="mix-blend-mode:multiply">
<path d="M214.355 361.836C185.9 359.875 159.196 348.481 134.614 328.675L108.467 335.161C108.467 335.161 117.048 356.429 149.561 369.494C182.074 382.559 217.381 373.845 222.019 370.364C225.138 368.032 227.828 363.739 229.266 361.163C225.185 361.987 220.199 362.231 214.343 361.836H214.355Z" fill="#C2B7BC"/>
</g>
<path d="M311.314 345.801C311.314 335.706 309.366 327.085 305.702 319.567C305.157 319.184 303.29 317.896 300.066 315.657C296.182 312.965 292.309 313.301 292.309 313.301C292.309 313.301 289.723 308.277 287.138 305.666C284.552 303.067 279.381 304.529 279.381 304.529C279.381 304.529 277.444 301.965 274.847 299.366C272.261 296.767 263.205 296.744 263.205 296.744C263.205 296.744 259.97 288.633 256.735 284.166C255.297 282.182 254.52 281.219 254.08 280.743C242.125 275.859 235.412 275.128 219.99 270.997C185.564 261.703 177.134 257.503 177.134 245.981C177.134 237.418 185.216 231.721 201.727 232.858C202.11 232.882 202.493 232.928 202.887 232.963L244.444 266.82L270.591 260.334L304.67 217.566C282.894 199.604 256.897 187.932 225.277 182.455V161.709L186.63 159.041L160.483 165.527L166.745 177.826L167.313 182.061C130.776 189.359 108.293 213.087 108.293 247.814C108.293 294.899 148.691 310.528 201.032 325.333C234.403 334.883 242.832 337.11 242.832 347.971C242.832 357.845 233 363.101 214.378 361.813C185.923 359.852 159.219 348.458 134.638 328.652L108.49 335.138L89.8568 376.015L119.077 388.987L121.79 387.095C141.258 398.896 163.278 407.064 186.619 411.601V433.333L196.092 433.983L199.118 442.476L225.266 435.99L225.764 415.232C278.163 414.757 311.337 389.753 311.337 345.766L311.314 345.801Z" stroke="#363636" stroke-linecap="round" stroke-linejoin="round"/>
<path d="M273.931 322.154C270.046 319.462 266.174 319.799 266.174 319.799C266.174 319.799 263.588 314.775 261.002 312.164C258.416 309.565 253.245 311.027 253.245 311.027C253.245 311.027 251.309 308.463 248.711 305.864C246.125 303.265 237.07 303.241 237.07 303.241C237.07 303.241 233.835 295.131 230.599 290.664C229.162 288.68 228.385 287.717 227.944 287.241C215.99 282.356 209.276 281.625 193.854 277.495C159.428 268.201 150.998 264 150.998 252.479C150.998 243.916 159.08 238.219 175.592 239.356C197.379 240.853 221.961 250.123 244.444 266.832L278.522 224.063C256.747 206.102 230.75 194.43 199.13 188.953V168.207L160.483 165.538V186.284C112.711 188.257 82.146 213.806 82.146 254.312C82.146 301.397 122.544 317.026 174.884 331.831C208.256 341.38 216.685 343.608 216.685 354.468C216.685 364.342 206.852 369.598 188.231 368.31C159.776 366.35 133.072 354.956 108.49 335.149L70.5508 375.017C95.1442 397.132 126.405 411.473 160.483 418.098V433.658L199.13 442.488V421.742C251.819 421.428 285.201 396.401 285.201 352.275C285.201 342.181 283.253 333.56 279.589 326.041C279.044 325.658 277.177 324.37 273.954 322.131L273.931 322.154Z" fill="#51D289" stroke="#363636" stroke-linecap="round" stroke-linejoin="round"/>
<path d="M273.931 322.154C270.046 319.462 266.174 319.799 266.174 319.799C266.174 319.799 263.588 314.775 261.002 312.164C258.416 309.565 253.245 311.027 253.245 311.027C253.245 311.027 251.309 308.463 248.711 305.864C246.125 303.265 237.07 303.241 237.07 303.241C237.07 303.241 233.835 295.131 230.599 290.664C229.162 288.68 228.385 287.717 227.944 287.241C215.99 282.356 209.276 281.625 193.854 277.495C159.428 268.201 150.998 264 150.998 252.479C150.998 243.916 159.08 238.219 175.592 239.356C197.379 240.853 221.961 250.123 244.444 266.832L278.522 224.063C256.747 206.102 230.75 194.43 199.13 188.953V168.207L160.483 165.538V186.284C112.711 188.257 82.146 213.806 82.146 254.312C82.146 301.397 122.544 317.026 174.884 331.831C208.256 341.38 216.685 343.608 216.685 354.468C216.685 364.342 206.852 369.598 188.231 368.31C159.776 366.35 133.072 354.956 108.49 335.149L70.5508 375.017C95.1442 397.132 126.405 411.473 160.483 418.098V433.658L199.13 442.488V421.742C251.819 421.428 285.201 396.401 285.201 352.275C285.201 342.181 283.253 333.56 279.589 326.041C279.044 325.658 277.177 324.37 273.954 322.131L273.931 322.154Z" stroke="#363636" stroke-linecap="round" stroke-linejoin="round"/>
<path d="M278.499 224.063L295.127 219.643" stroke="#363636" stroke-linecap="round" stroke-linejoin="round"/>
<path d="M199.107 168.207L216.697 164.865" stroke="#363636" stroke-linecap="round" stroke-linejoin="round"/>
<path d="M199.107 188.953L216.697 185.762" stroke="#363636" stroke-linecap="round" stroke-linejoin="round"/>
<path d="M227.921 287.241L239.771 285.942L244.386 281.625L254.068 280.755" stroke="#363636" stroke-linecap="round" stroke-linejoin="round"/>
<path d="M279.554 326.064L283.59 322.699L289.747 321.98H293.585H302.049L305.702 319.578" stroke="#363636" stroke-linecap="round" stroke-linejoin="round"/>
<path d="M300.438 279.258C300.438 279.258 313.285 279.653 317.366 281.184" stroke="#363636" stroke-linecap="round" stroke-linejoin="round"/>
<path d="M384.201 400.358C384.201 400.358 396.051 424.422 416.784 438.311" stroke="white" stroke-linecap="round" stroke-linejoin="round"/>
<path d="M499.724 258.744C499.724 258.744 506.635 244.856 527.367 251.342" stroke="#363636" stroke-linecap="round" stroke-linejoin="round"/>
<path d="M501.707 307.801C501.707 307.801 516.514 312.431 511.586 332.794" stroke="#363636" stroke-linecap="round" stroke-linejoin="round"/>
<path d="M333.507 320.727C333.507 320.727 336.812 342.041 345.694 350.372C354.575 358.703 369.394 345.743 369.394 345.743" stroke="#363636" stroke-linecap="round" stroke-linejoin="round"/>
<path d="M283.335 310.853C283.335 311.746 282.558 312.477 281.607 312.477C280.656 312.477 279.879 311.758 279.879 310.853C279.879 309.948 280.656 309.229 281.607 309.229C282.558 309.229 283.335 309.96 283.335 310.853Z" fill="white" stroke="#363636" stroke-linecap="round" stroke-linejoin="round"/>
<path d="M275.948 282.994C277.305 282.994 278.407 284.027 278.407 285.303C278.407 286.58 277.305 287.612 275.948 287.612C274.592 287.612 273.49 286.58 273.49 285.303C273.49 284.027 274.592 282.994 275.948 282.994Z" fill="white" stroke="#363636" stroke-linecap="round" stroke-linejoin="round"/>
<path d="M267.751 310.041C269.107 310.041 270.209 311.073 270.209 312.35C270.209 313.626 269.107 314.659 267.751 314.659C266.394 314.659 265.292 313.626 265.292 312.35C265.292 311.073 266.394 310.041 267.751 310.041Z" fill="white" stroke="#363636" stroke-linecap="round" stroke-linejoin="round"/>
<path d="M279.195 294.864C279.195 295.758 278.418 296.489 277.467 296.489C276.517 296.489 275.74 295.769 275.74 294.864C275.74 293.959 276.517 293.24 277.467 293.24C278.418 293.24 279.195 293.959 279.195 294.864Z" fill="white" stroke="#363636" stroke-linecap="round" stroke-linejoin="round"/>
<path d="M252.294 294.864C252.294 295.758 251.517 296.489 250.566 296.489C249.616 296.489 248.839 295.769 248.839 294.864C248.839 293.959 249.616 293.24 250.566 293.24C251.517 293.24 252.294 293.959 252.294 294.864Z" fill="white" stroke="#363636" stroke-linecap="round" stroke-linejoin="round"/>
<path d="M437.562 413.91L442.212 452.223C442.212 452.223 439.719 459.938 433.527 459.996" stroke="white" stroke-linecap="round" stroke-linejoin="round"/>
<path d="M496.083 416.52C496.083 416.52 499.794 430.455 519.309 438.287" stroke="white" stroke-linecap="round" stroke-linejoin="round"/>
<path d="M464.498 409.129L467.408 419.352" stroke="white" stroke-linecap="round" stroke-linejoin="round"/>
</g>
</g>
</g>
<defs>
<clipPath id="clip0_43_536">
<rect width="800" height="550" fill="white" transform="translate(-97)"/>
</clipPath>
</defs>
</svg>
