<svg width="703" height="549" fill="none" xmlns="http://www.w3.org/2000/svg"><g clip-path="url(#prefix__clip0_43_536)"><mask id="prefix__a" style="mask-type:luminance" maskUnits="userSpaceOnUse" x="-97" y="0" width="800" height="550"><path d="M703 0H-97v550h800V0z" fill="#fff"/></mask><g mask="url(#prefix__a)"><path d="M576.114 244.937s-2.018 21.767-7.062 33.115c-5.044 11.359-16.152 20.815-17.161 25.549-1.009 4.734-3.026 46.365-3.026 46.365M548.865 362.254v17.984M66.376 263.664s2.018 33.115 25.232 49.196M65.368 254.208s0-13.251 3.026-22.707M693.017 503.774c-20.733 4.166-20.733 30.527-35.528 27.754-14.807-2.773 17.764-24.981 25.173-54.127 7.398-29.147-22.205-48.57-31.087-29.147-8.882 19.424-4.441 66.612-10.366 63.839-5.925-2.773 4.441-97.151-19.248-116.574-23.689-19.435-44.421 2.773-37.012 43.024 7.398 40.25 39.969 76.324 28.13 79.108-11.839 2.773-25.173-41.631-42.937-59.673-17.764-18.043-32.571-4.166-20.732 22.207 11.839 26.374 66.626 68.005 66.626 68.005s-11.688 3.133-33.383-13.819c-21.694-16.952-31.886-16.639-36.165-9.863-4.279 6.777 4.928 13.866 13.81 16.639M62.341 401.054s28.258 4.734 26.24 16.081c-2.017 11.36-37.348 10.408-65.605 25.55-28.258 15.142-2.018 34.066-8.07 52.039C8.852 512.697-60.8 537.306-60.8 537.306M278.975 185.948c8.534-2.367 17.787-5.279 25.161-10.025 14.761-9.48 12.024-13.877 3.745-27.197-23.561-37.884 58.626-48.199 81.816-50.345M639.273 30.458c2.133-4.433 4.916-9.26 9.705-11.998 5.148-2.947 10.598-4.107 15.538-5.674M502.727 83.24s83.034 6.485 110.723-6.487c12.337-5.778 16.651-15.432 19.492-25.399" stroke="#363636" stroke-linecap="round" stroke-linejoin="round"/><path d="M476.557 100.864s-7.989 8.981-7.989 17.219c0 8.238 3.189 19.458 4.789 30.689 1.6 11.232-8.789 31.444-8.789 31.444s13.972-9.978 16.766-14.968c2.795-4.989 5.589-14.225 5.589-14.225s7.189-5.244 7.989-11.231c.8-5.987 2.4-9.735 2.4-17.219 0-7.484-5.588-25.445-20.767-21.709h.012zM388.723 186.957l39.923 6.742 8.789-8.981-6.389-2.994s-36.734 2.994-42.323 5.245v-.012zM290.5 458.674v105.54h16.767V445.191s-6.389 8.238-16.767 13.471v.012zM280.111 325.426s7.989 27.696 4.789 39.67c-3.189 11.975-7.989 22.452-11.978 26.942-3.989 4.491-23.156 21.709-27.156 21.709 0 0 23.156-2.251 37.534-13.471 14.378-11.231 26.356-29.192 27.944-44.914 1.6-15.722-6.389-33.684-6.389-33.684h-18.367l-6.389 3.748h.012zM227.411 181.713l-27.945 6.741s53.501 11.974 77.456 34.437l26.356-4.49s-17.567-23.948-75.867-36.677v-.011zM478.157 179.462s3.189 3.748 4.789 11.231c1.6 7.484 1.6 10.478 1.6 10.478s7.989-2.251 24.756 2.993c16.767 5.245 34.333 6.742 23.956 8.981-10.378 2.239-27.156-2.994-13.578 2.994 13.578 5.987 22.355.754 25.556 8.98 3.188 8.238 3.988 36.677-1.601 38.174-5.588 1.496-21.555-5.987-21.555.754s12.778 8.981 11.178 18.715c-1.6 9.735-3.189 15.722-9.578 23.206-6.389 7.484-15.178-.754-22.356-2.251-7.189-1.497 3.189 5.987 4.789 17.219 1.6 11.231-9.577 17.961-9.577 17.961s-11.978-18.715-10.378-10.477c1.6 8.238 6.389 16.464 5.589 21.709-.8 5.244-14.378 1.496-16.767-6.742-2.4-8.238-15.074-22.869-16.767-15.721-1.692 7.158 7.99 19.458 8.79 28.45.8 8.98-7.989 17.218-7.989 17.218l-10.378-.754h-6.389s-1.6 9.735-10.378 17.219c-8.789 7.484-13.578 8.238-3.989 12.728 9.578 4.491 33.545 5.987 55.101 5.987 21.555 0 43.122-14.967 47.111-19.458 3.989-4.49.8-17.218.8-26.942 0-9.723 9.578-55.392 9.578-55.392s21.555-35.934 23.156-47.908c1.6-11.974-4.72-36.05-7.19-39.67-2.469-3.62-7.989-11.974-18.366-18.716-10.378-6.741-51.912-19.458-51.912-19.458s3.189-2.251 0-5.987c-3.189-3.748-6.389-4.49-6.389-4.49l-1.6 8.98-.012-.011z" fill="#fff"/><g style="mix-blend-mode:multiply"><path d="M395.02 184.59s-16.489.685-22.901 10.466c-6.412 9.781-10.424 38.348-11.236 47.375-.8 9.027-16.047 30.829-12.036 37.593M336.812 338.34s0 14.805 4.939 20.363c4.94 5.558 7.897 7.403 19.747 7.403s10.865-5.558 10.865-5.558" stroke="#363636" stroke-linecap="round" stroke-linejoin="round"/><path d="M378.16 373.509s-4.615 47.571-3.455 63.781c1.148 16.22 6.922 126.39 6.922 126.39h152.234s2.307-80.988 2.307-115.577c0-34.588-8.07-65.95-8.07-65.95s-87.648 20.537-149.926-8.644h-.012z" fill="#363636"/><path d="M480.418 182.27s18.819 3.133 30.983 8.017c12.163 4.885 39.945 13.03 42.554 25.237 2.609 12.206-2.609 36.63-7.815 63.502-5.206 26.861-12.94 47.502-13.891 62.679-2.087 33.068 1.472 41.167-4.337 47.212-7.363 7.658-39.076 20.352-78.163 17.091-39.076-3.26-70.87-17.903-75.207-35.006-4.336-17.091 5.207-51.981 0-100.017-5.206-48.024 4.859-83.97 20.501-86.418 15.63-2.436 57.315-4.072 66-4.072 8.684 0 19.398 1.752 19.398 1.752l-.023.023z" fill="#fff" stroke="#363636" stroke-linecap="round" stroke-linejoin="round"/><path d="M432.182 222.369l7.027 18.82s-19.074 83.761-25.104 100.702c-3.931 11.069-6.586 26.153-7.954 35.284-.765 5.105.359 10.292 3.165 14.724l5.624 8.888c1.913 3.028 6.204 3.852 9.241 1.764l9.172-6.312c4.975-3.423 8.024-8.784 8.302-14.562l6.587-137.668 16.059-16.941-16.059-23.53-16.06 18.82v.011z" fill="#C2B7BC"/><path d="M438.606 180.599s-3.177 3.713-7.931 11.893-10.737 33.904-5.972 36.131c4.754 2.228 24.582-10.408 24.582-10.408s3.966 17.834 13.485 16.349c9.52-1.485 25.371-34.194 24.582-48.314-.788-14.121-5.554-17.092-13.485-18.588-7.931-1.485-35.261 12.925-35.261 12.925v.012z" fill="#fff" stroke="#363636" stroke-linecap="round" stroke-linejoin="round"/><path d="M438.177 184.022s4.754 8.18 5.554 17.091c.591 6.625 3.177 13.378 6.343 13.378 3.165 0 28.547-31.966 28.547-37.907 0-5.94-1.588-20.073-1.588-20.073s-30.136 25.271-38.856 27.499v.012z" fill="#fff" stroke="#363636" stroke-linecap="round" stroke-linejoin="round"/><path d="M474.725 174.426s-9.288 14.805-17.648 20.027c-8.36 5.221-13.937 1.74-13.937 1.74l-6.204-12.543s29.429-4.002 37.789-9.235v.011z" fill="#C2B7BC"/><path d="M430.779 86.035c-4.684 2.437-9.937 5.315-11.746 10.362-4.754 13.25-3.815 37.431-1.322 53.802 1.369 9.016 4.812 27.035 19.225 33.463 18.947 8.459 39.285-8.377 47.228-23.415 9.786-18.529 9.044-43.232 2.608-62.574-2.33-7.008-6.794-11.591-14.215-13.889-13.219-4.095-29.336-4.223-41.766 2.251h-.012z" fill="#fff" stroke="#363636" stroke-linecap="round" stroke-linejoin="round"/><path d="M434.177 127.667s-.685 18.019-.685 24.458c0 6.44 2.748 7.728 6.865 7.728 4.116 0 10.296-7.728 10.296-7.728" fill="#fff"/><path d="M434.177 127.667s-.685 18.019-.685 24.458c0 6.44 2.748 7.728 6.865 7.728 4.116 0 10.296-7.728 10.296-7.728" stroke="#363636" stroke-linecap="round" stroke-linejoin="round"/><path d="M450.039 121.54s7.328-.963 14.007 3.226l-14.007-3.226z" fill="#fff"/><path d="M450.039 121.54s7.328-.963 14.007 3.226" stroke="#363636" stroke-linecap="round" stroke-linejoin="round"/><path d="M432.762 116.597s-6.957-1.148-10.853 3.354l10.853-3.354z" fill="#fff"/><path d="M432.762 116.597s-6.957-1.148-10.853 3.354" stroke="#363636" stroke-linecap="round" stroke-linejoin="round"/><path d="M449.842 136.752s3.873 3.272 13.868 1.206l-13.868-1.206z" fill="#fff"/><path d="M449.842 136.752s3.873 3.272 13.868 1.206" stroke="#363636" stroke-linecap="round" stroke-linejoin="round"/><path d="M420.448 134.106s4.812 5.152 10.296 1.926l-10.296-1.926z" fill="#fff"/><path d="M420.448 134.106s4.812 5.152 10.296 1.926" stroke="#363636" stroke-linecap="round" stroke-linejoin="round"/><path d="M486.761 97.673s1.67-26.002-16.187-31.792" stroke="#363636" stroke-miterlimit="10"/><path d="M491.167 98.068s-14.424-28.961-39.818-31.537" stroke="#363636" stroke-miterlimit="10" stroke-linecap="round"/><path d="M498.727 108.359c-2.064-9.015-7.548-10.303-7.548-10.303s-4.476-9.421-12.048-16.708c.128 0 .244-.023.371-.023 0 0-1.287-1.358-4.07-3.133-1.727-1.3-3.583-2.425-5.542-3.295-1.299-.58-2.713-1.021-4.221-1.346-5.995-2.1-14.088-3.806-24.616-3.806-27.469 0-42.566 12.868-43.946 24.459-1.369 11.58 15.792 0 13.728 1.926s-15.108 9.654-6.18 15.443c5.554 3.597 11.862 2.217 17.3-.789 2.922-1.612 12.152-6.312 13.81-8.887-1.229 1.902-3.42 4.942-6.4 7.739-4.812 4.502-8.929 5.79-8.929 5.79s8.244.638 16.477-5.152c8.244-5.79 19.909-11.58 30.901-11.58 10.993 0 8.929 9.016 8.929 9.016s-7.549 8.365-2.748 12.867c4.8 4.502 8.244 4.502 8.928 6.44.684 1.926-.684 7.078 1.368 7.078s1.368-9.654 4.812-9.654 7.549 5.79 7.549 5.79 4.116-12.868 2.064-21.883l.011.011z" fill="#363636"/><path d="M482.934 136.682s2.749-14.156 10.297-14.156 4.812 9.016 2.064 18.02c-2.748 9.015-9.612 10.292-9.612 10.292" fill="#fff"/><path d="M482.934 136.682s2.749-14.156 10.297-14.156 4.812 9.016 2.064 18.02c-2.748 9.015-9.612 10.292-9.612 10.292" stroke="#363636" stroke-linecap="round" stroke-linejoin="round"/><path d="M527.483 220.687s-28.791 13.773-33.417 30.632c-4.627 16.859-20.872 50.959-27.33 56.285 0 0-9.184 7.24.359 12.125 9.555 4.885 18.24 23.612 21.707 32.558 3.478 8.957 17.184 4.966 17.624-1.532.441-6.497 7.178-15.884 13.52-19.585 6.343-3.702 32.513-42.919 41.001-65.255s-3.618-49.161-11.41-49.626" fill="#fff"/><path d="M527.483 220.687s-28.791 13.773-33.417 30.632c-4.627 16.859-20.872 50.959-27.33 56.285 0 0-9.184 7.24.359 12.125 9.555 4.885 18.24 23.612 21.707 32.558 3.478 8.957 17.184 4.966 17.624-1.532.441-6.497 7.178-15.884 13.52-19.585 6.343-3.702 32.513-42.919 41.001-65.255s-3.618-49.161-11.41-49.626" stroke="#363636" stroke-linecap="round" stroke-linejoin="round"/><path d="M334.759 232.974l12.523 65.127c.452 2.565 3.026 4.317 5.775 3.922 2.91-.418 4.835-3.051 4.197-5.743l-12.905-65.058c-.569-2.378-2.795-3.237-5.357-2.842-2.667.417-4.673 2.088-4.233 4.583v.011z" fill="#fff" stroke="#363636" stroke-linecap="round" stroke-linejoin="round"/><path d="M352.013 264.244s-14.193-6.045-17.207-5.244c-3.015.812-3.873 9.27-3.873 9.27s.429 3.632 1.716 8.47c1.287 4.839 5.589 12.102 10.32 14.516 4.731 2.425 11.618 2.425 14.192 0s.858-11.696.858-11.696" fill="#fff"/><path d="M352.013 264.244s-14.193-6.045-17.207-5.244c-3.015.812-3.873 9.27-3.873 9.27s.429 3.632 1.716 8.47c1.287 4.839 5.589 12.102 10.32 14.516 4.731 2.425 11.618 2.425 14.192 0s.858-11.696.858-11.696" stroke="#363636" stroke-linecap="round" stroke-linejoin="round"/><path d="M358.901 255.368s-7.155-.151-7.155 5.117-.626 14.631 1.253 16.395c1.878 1.752 8.742 1.752 9.995-4.096.753-3.527 1.148-8.273 1.356-11.487.174-2.808-1.843-5.465-4.812-5.883a4.12 4.12 0 00-.637-.046zM315.627 205.847l6.633 35.18c1.669 9.375 11.061 15.768 21.091 14.341 10.633-1.508 17.671-11.139 15.341-20.978l-8.024-34.925c-2.064-8.679-10.204-11.835-19.561-10.373-9.729 1.52-17.092 7.635-15.468 16.755h-.012z" fill="#fff" stroke="#363636" stroke-linecap="round" stroke-linejoin="round"/><path d="M333.959 188.802c-.939.047-1.89.139-2.864.29-9.728 1.52-17.091 7.635-15.468 16.755l6.633 35.18c1.669 9.375 11.061 15.768 21.091 14.341a19.391 19.391 0 004.337-1.149l-13.729-65.405v-.012z" fill="#C2B7BC"/><path d="M349.798 197.203c1.426 6.312-5.183 12.96-14.749 14.863-9.577 1.903-18.483-1.682-19.909-7.983-1.426-6.312 5.183-12.96 14.749-14.863 9.578-1.903 18.483 1.682 19.909 7.983z" fill="#fff" stroke="#363636" stroke-linecap="round" stroke-linejoin="round"/><path d="M350.853 269.697c2.088 5.605-.521 11.545-5.82 13.274-5.299 1.729-11.271-1.404-13.358-7.008-2.087-5.604.522-11.545 5.821-13.274 5.299-1.728 11.27 1.404 13.357 7.008z" fill="#363636"/><path d="M328.602 272.355L283.59 305.4s-4.093 4.351.765 4.327c4.87-.023 53.048-28.833 53.048-28.833s6.98-9.166-8.812-8.551l.011.012z" fill="#363636"/><path d="M457.518 353.54c1.31-6.451-10.529-24.285-18.158-27.186 0 0-13.428-7.333-24.582-9.63-11.155-2.297-31.899-4.363-48.735-12.705l-16.836-8.354s-2.366-16.453-3.757-21.431c-1.403-4.977-4.65-8.435-12.442-8.899-7.803-.464-17.114-4.293-19.874-2.007-2.771 2.285-1.53 9.7-1.53 9.7l-11.143 6.242c-4.523-.267-10.169-.627-12.025-.627-2.991 0-6.481 5.14-1.994 6.544s18.947 2.333 18.947 2.333c7.119 7.855 13.74 16.731 21.3 24.145 4.105 4.026 11.178 4.618 14.819 8.018 0 0 44.108 33.544 58.173 40.587 24.303 12.159 51.227 14.097 56.654 11.15 5.427-2.936-.093-11.429 1.218-17.868l-.035-.012z" fill="#fff" stroke="#363636" stroke-linecap="round" stroke-linejoin="round"/><path d="M435.046 326.482s6.911 13.796 8.36 23.345c1.45 9.538-8 15.676-16.001 14.991-8.001-.685-37.082-10.907-37.082-10.907s27.11 16.581 46.532 17.045c19.434.452 23.991 3.411 26.901-2.727s1.449-26.582-7.27-33.393c-8.731-6.811-18.182-14.643-21.451-8.342l.011-.012z" fill="#C2B7BC"/><path d="M498.948 352.763a51.807 51.807 0 01-.661-3.992c-.685-5.314-3.572-18.901-15.445-29.808-15.109-13.888-26.785-12.856-30.449-11.347-3.676 1.508-11.306 8.841-11.306 8.841s-12.673 2.704-6.041 10.025c6.633 7.321 17.486 18.356 18.553 28.81 1.066 10.454.255 22.521 12.986 18.947 12.732-3.562 14.691-6.045 25.521-7.994 8.418-1.508 7.618-9.839 6.83-13.482h.012z" fill="#fff" stroke="#363636" stroke-linecap="round" stroke-linejoin="round"/><path d="M307.708 275.534s14.192 0 15.92 1.613c1.716 1.612 2.145 2.819 2.145 2.819M311.58 273.016s5.589-1.114 12.477-1.114c6.887 0 10.32 2.019 10.32 2.019M447.523 319.88s23.26 9.027 24.071 21.802M474.006 349.2s.8 7.519.8 11.278" stroke="#363636" stroke-linecap="round" stroke-linejoin="round"/><path d="M440.763 166.501s9.728 2.599 15.978-3.91l-15.978 3.91z" fill="#fff"/><path d="M440.763 166.501s9.728 2.599 15.978-3.91" stroke="#363636" stroke-linecap="round" stroke-linejoin="round"/><path d="M426.605 414.594s3.455 41.086 6.922 45.402c3.456 4.328 11.538 9.735 11.538 9.735" stroke="#fff" stroke-linecap="round" stroke-linejoin="round"/><path d="M466.968 453.51s-18.448 22.707-18.448 28.103c0 5.395 1.148 80.988 1.148 80.988" stroke="#fff" stroke-miterlimit="10" stroke-linecap="round"/><path d="M525.79 398.374s-14.992 19.458-49.592 19.458l-2.238-8.714" stroke="#fff" stroke-linecap="round" stroke-linejoin="round"/><path d="M307.499 438.728H98.472v125.834h209.027V438.728z" fill="#fff" stroke="#363636" stroke-miterlimit="10"/><path d="M126.347 564.562v-85.78c0-3.609-3.119-6.533-6.969-6.533-3.849 0-6.968 2.924-6.968 6.533v85.78h13.937zM282.419 564.562v-77.067c0-3.608-3.12-6.532-6.969-6.532-3.85 0-6.969 2.924-6.969 6.532v77.067h13.938zM157.005 564.562v-75.326c0-3.609-3.119-6.533-6.969-6.533s-6.969 2.924-6.969 6.533v75.326h13.938zM197.924 564.562v-68.771c0-4.826-4.174-8.725-9.311-8.725-5.148 0-9.311 3.91-9.311 8.725v68.771h18.622zM247.157 564.562v-69.641c0-4.827-4.174-8.725-9.311-8.725-5.148 0-9.31 3.91-9.31 8.725v69.641h18.621z" fill="#51D289" stroke="#363636" stroke-miterlimit="10"/><path d="M307.499 438.728H98.472v125.834h209.027V438.728z" stroke="#363636" stroke-miterlimit="10"/><path d="M202.991 475.742c57.718 0 104.508-16.572 104.508-37.014 0-20.441-46.79-37.013-104.508-37.013-57.718 0-104.507 16.572-104.507 37.013 0 20.442 46.789 37.014 104.507 37.014z" fill="#fff" stroke="#363636" stroke-linecap="round" stroke-linejoin="round"/><path d="M202.991 475.742c57.718 0 104.508-16.572 104.508-37.014 0-20.441-46.79-37.013-104.508-37.013-57.718 0-104.507 16.572-104.507 37.013 0 20.442 46.789 37.014 104.507 37.014z" stroke="#363636" stroke-linecap="round" stroke-linejoin="round"/><path d="M196.486 464.22c42.375 0 76.726-11.023 76.726-24.621 0-13.598-34.351-24.622-76.726-24.622-42.374 0-76.725 11.024-76.725 24.622s34.351 24.621 76.725 24.621z" fill="#C2B7BC"/><path d="M311.314 345.801c0-10.095-1.948-18.716-5.612-26.234-.545-.383-2.412-1.671-5.636-3.911-3.884-2.691-7.757-2.355-7.757-2.355s-2.586-5.024-5.171-7.635c-2.586-2.599-7.757-1.137-7.757-1.137s-1.937-2.564-4.534-5.163c-2.586-2.599-11.642-2.622-11.642-2.622s-3.235-8.111-6.47-12.578c-1.438-1.984-2.215-2.947-2.655-3.423-11.955-4.884-18.668-5.615-34.09-9.746-34.426-9.294-42.856-13.494-42.856-25.016 0-8.563 8.082-14.26 24.593-13.123.383.024.766.07 1.16.105l41.557 33.857 26.147-6.486 34.079-42.768c-21.776-17.962-47.773-29.634-79.393-35.111v-20.746l-38.647-2.668-26.147 6.486 6.262 12.299.568 4.235c-36.537 7.298-59.02 31.026-59.02 65.753 0 47.085 40.398 62.714 92.739 77.519 33.371 9.55 41.8 11.777 41.8 22.638 0 9.874-9.832 15.13-28.454 13.842-28.455-1.961-55.159-13.355-79.74-33.161l-26.148 6.486-18.633 40.877 29.22 12.972 2.713-1.892c19.468 11.801 41.488 19.969 64.829 24.506v21.732l9.473.65 3.026 8.493 26.148-6.486.498-20.758c52.399-.475 85.573-25.479 85.573-69.466l-.023.035z" fill="#fff" stroke="#363636" stroke-linecap="round" stroke-linejoin="round"/><path d="M304.635 217.577l-35.737 8.877-24.477 40.366 26.147-6.486 34.067-42.757zM199.107 442.511l26.135-6.486v-20.758L197.24 418.4l1.867 24.111zM191.373 289.376c2.783-.87 30.658-1.74 30.658-1.74l17.74-1.694 4.557-7.02 6.088.406c-9.821-3.643-16.663-4.63-30.438-8.331-34.426-9.294-42.856-13.494-42.856-25.016 0-6.416 4.546-11.231 13.776-12.751-29.035-10.304-62.325 9.073-52.48 30.887 10.215 22.637 50.16 26.129 52.955 25.259zM214.355 361.836c-28.455-1.961-55.159-13.355-79.741-33.161l-26.147 6.486s8.581 21.268 41.094 34.333c32.513 13.065 67.82 4.351 72.458.87 3.119-2.332 5.809-6.625 7.247-9.201-4.081.824-9.067 1.068-14.923.673h.012z" fill="#C2B7BC"/><path d="M311.314 345.801c0-10.095-1.948-18.716-5.612-26.234-.545-.383-2.412-1.671-5.636-3.91-3.884-2.692-7.757-2.356-7.757-2.356s-2.586-5.024-5.171-7.635c-2.586-2.599-7.757-1.137-7.757-1.137s-1.937-2.564-4.534-5.163c-2.586-2.599-11.642-2.622-11.642-2.622s-3.235-8.111-6.47-12.578c-1.438-1.984-2.215-2.947-2.655-3.423-11.955-4.884-18.668-5.615-34.09-9.746-34.426-9.294-42.856-13.494-42.856-25.016 0-8.563 8.082-14.26 24.593-13.123.383.024.766.07 1.16.105l41.557 33.857 26.147-6.486 34.079-42.768c-21.776-17.962-47.773-29.634-79.393-35.111v-20.746l-38.647-2.668-26.147 6.486 6.262 12.299.568 4.235c-36.537 7.298-59.02 31.026-59.02 65.753 0 47.085 40.398 62.714 92.739 77.519 33.371 9.55 41.8 11.777 41.8 22.638 0 9.874-9.832 15.13-28.454 13.842-28.455-1.961-55.159-13.355-79.74-33.161l-26.148 6.486-18.633 40.877 29.22 12.972 2.713-1.892c19.468 11.801 41.488 19.969 64.829 24.506v21.732l9.473.65 3.026 8.493 26.148-6.486.498-20.758c52.399-.475 85.573-25.479 85.573-69.466l-.023.035z" stroke="#363636" stroke-linecap="round" stroke-linejoin="round"/><path d="M273.931 322.154c-3.885-2.692-7.757-2.355-7.757-2.355s-2.586-5.024-5.172-7.635c-2.586-2.599-7.757-1.137-7.757-1.137s-1.936-2.564-4.534-5.163c-2.586-2.599-11.641-2.623-11.641-2.623s-3.235-8.11-6.471-12.577c-1.437-1.984-2.214-2.947-2.655-3.423-11.954-4.885-18.668-5.616-34.09-9.746-34.426-9.294-42.856-13.495-42.856-25.016 0-8.563 8.082-14.26 24.594-13.123 21.787 1.497 46.369 10.767 68.852 27.476l34.078-42.769c-21.775-17.961-47.772-29.633-79.392-35.11v-20.746l-38.647-2.669v20.746c-47.772 1.973-78.337 27.522-78.337 68.028 0 47.085 40.398 62.714 92.738 77.519 33.372 9.549 41.801 11.777 41.801 22.637 0 9.874-9.833 15.13-28.454 13.842-28.455-1.96-55.159-13.354-79.741-33.161l-37.94 39.868c24.594 22.115 55.855 36.456 89.933 43.081v15.56l38.647 8.83v-20.746c52.689-.314 86.071-25.341 86.071-69.467 0-10.094-1.948-18.715-5.612-26.234-.545-.383-2.412-1.671-5.635-3.91l-.023.023z" fill="#51D289" stroke="#363636" stroke-linecap="round" stroke-linejoin="round"/><path d="M273.931 322.154c-3.885-2.692-7.757-2.355-7.757-2.355s-2.586-5.024-5.172-7.635c-2.586-2.599-7.757-1.137-7.757-1.137s-1.936-2.564-4.534-5.163c-2.586-2.599-11.641-2.623-11.641-2.623s-3.235-8.11-6.471-12.577c-1.437-1.984-2.214-2.947-2.655-3.423-11.954-4.885-18.668-5.616-34.09-9.746-34.426-9.294-42.856-13.495-42.856-25.016 0-8.563 8.082-14.26 24.594-13.123 21.787 1.497 46.369 10.767 68.852 27.476l34.078-42.769c-21.775-17.961-47.772-29.633-79.392-35.11v-20.746l-38.647-2.669v20.746c-47.772 1.973-78.337 27.522-78.337 68.028 0 47.085 40.398 62.714 92.738 77.519 33.372 9.549 41.801 11.777 41.801 22.637 0 9.874-9.833 15.13-28.454 13.842-28.455-1.96-55.159-13.354-79.741-33.161l-37.94 39.868c24.594 22.115 55.855 36.456 89.933 43.081v15.56l38.647 8.83v-20.746c52.689-.314 86.071-25.341 86.071-69.467 0-10.094-1.948-18.715-5.612-26.234-.545-.383-2.412-1.671-5.635-3.91l-.023.023zM278.499 224.063l16.628-4.42M199.107 168.207l17.59-3.342M199.107 188.953l17.59-3.191" stroke="#363636" stroke-linecap="round" stroke-linejoin="round"/><path d="M227.921 287.241l11.85-1.299 4.615-4.317 9.682-.87M279.554 326.064l4.036-3.365 6.157-.719h12.302l3.653-2.402M300.438 279.258s12.847.395 16.928 1.926" stroke="#363636" stroke-linecap="round" stroke-linejoin="round"/><path d="M384.201 400.358s11.85 24.064 32.583 37.953" stroke="#fff" stroke-linecap="round" stroke-linejoin="round"/><path d="M499.724 258.744s6.911-13.888 27.643-7.402M501.707 307.801s14.807 4.63 9.879 24.993M333.507 320.727s3.305 21.314 12.187 29.645c8.881 8.331 23.7-4.629 23.7-4.629" stroke="#363636" stroke-linecap="round" stroke-linejoin="round"/><path d="M283.335 310.853c0 .893-.777 1.624-1.728 1.624s-1.728-.719-1.728-1.624c0-.905.777-1.624 1.728-1.624s1.728.731 1.728 1.624zM275.948 282.994c1.357 0 2.459 1.033 2.459 2.309 0 1.277-1.102 2.309-2.459 2.309-1.356 0-2.458-1.032-2.458-2.309 0-1.276 1.102-2.309 2.458-2.309zM267.751 310.041c1.356 0 2.458 1.032 2.458 2.309 0 1.276-1.102 2.309-2.458 2.309-1.357 0-2.459-1.033-2.459-2.309 0-1.277 1.102-2.309 2.459-2.309zM279.195 294.864c0 .894-.777 1.625-1.728 1.625-.95 0-1.727-.72-1.727-1.625s.777-1.624 1.727-1.624c.951 0 1.728.719 1.728 1.624zM252.294 294.864c0 .894-.777 1.625-1.728 1.625-.95 0-1.727-.72-1.727-1.625s.777-1.624 1.727-1.624c.951 0 1.728.719 1.728 1.624z" fill="#fff" stroke="#363636" stroke-linecap="round" stroke-linejoin="round"/><path d="M437.562 413.91l4.65 38.313s-2.493 7.715-8.685 7.773M496.083 416.52s3.711 13.935 23.226 21.767M464.498 409.129l2.91 10.223" stroke="#fff" stroke-linecap="round" stroke-linejoin="round"/></g></g></g><defs><clipPath id="prefix__clip0_43_536"><path fill="#fff" transform="translate(-97)" d="M0 0h800v550H0z"/></clipPath></defs></svg>